<svg version="1.1" xmlns="http://www.w3.org/2000/svg" xmlns:xlink="http://www.w3.org/1999/xlink" width="97.28527" height="103.03045" viewBox="0,0,97.28527,103.03045"><g transform="translate(-191.35736,-125.86408)"><g data-paper-data="{&quot;isPaintingLayer&quot;:true}" fill-rule="nonzero" stroke-linecap="butt" stroke-linejoin="miter" stroke-miterlimit="10" stroke-dasharray="" stroke-dashoffset="0" style="mix-blend-mode: normal"><path d="M214.45294,140.16631c0.86528,-0.73733 1.77263,-1.31865 2.72201,-1.74398c0.16209,-0.07312 0.30164,-0.14685 0.41863,-0.22119c0.14625,-0.09262 0.28457,-0.16087 0.41497,-0.20474c0.41436,-0.13772 0.78608,-0.35343 1.11512,-0.64714c0.04388,-0.04022 0.09506,-0.05972 0.15356,-0.0585c0.72027,0.01584 1.07126,-0.33271 1.05297,-1.04566c-0.03473,-1.31621 0.0914,-2.90664 -0.26142,-4.16801c-0.27787,-0.99325 -0.38024,-1.92009 -0.30711,-2.7805c0.1298,-1.53559 4.18995,-2.50994 5.2813,-2.42768c0.5923,0.04388 1.07857,0.57219 1.5173,0.93414c0.68735,0.5667 0.97253,1.2833 1.23578,2.08766c0.01724,0.05763 0.07326,0.09464 0.13303,0.08791c0.05977,-0.00674 0.10613,-0.05531 0.11011,-0.11533c0.05667,-0.61606 0.0329,-1.27417 0.33271,-1.78968c0.64897,-1.12244 1.87012,-1.1919 3.11504,-1.17728c0.66908,0.00731 1.21628,0.10054 1.64161,0.2797c0.6447,0.26934 1.17971,0.67395 1.60505,1.21385c0.73489,0.93231 0.44239,2.20466 0.34368,3.30515c-0.0093,0.10287 0.04038,0.20216 0.1283,0.25637c0.08792,0.05422 0.19893,0.05405 0.28668,-0.00045c1.60688,-1.00362 3.94681,-1.62516 5.84801,-1.1462c0.51308,0.12797 0.77754,0.19378 0.79338,0.19744c0.45093,0.0914 0.90184,0.17976 1.35277,0.26507c0.06094,0.01219 0.12004,0.00609 0.17732,-0.01829c0.5728,-0.24374 1.16205,-0.40888 1.76775,-0.49541c1.34546,-0.19378 2.4679,-0.24313 3.33258,0.83178c0.04631,0.05761 0.11554,0.09201 0.18941,0.09412c0.07387,0.00211 0.14496,-0.02828 0.19448,-0.08315c0.15112,-0.16575 0.3321,-0.31139 0.54293,-0.4369c0.93232,-0.55451 1.91826,-0.76597 2.95783,-0.63434c0.05861,0.00726 0.11754,-0.01068 0.16217,-0.04937c0.04461,-0.03869 0.07071,-0.0945 0.07182,-0.15354c0.00731,-0.69589 0.248,-1.25102 0.72209,-1.66538c0.91404,-0.79887 2.56113,-0.52283 3.68906,-0.46616c1.06638,0.05485 1.82808,0.60327 2.28509,1.64527c0.28396,0.64713 0.73854,1.25284 1.36374,1.8171c0.31626,0.28518 0.44788,0.70381 0.47896,1.159c0.09871,1.46794 0.25592,2.81158 -0.89759,3.93402c-0.06219,0.06086 -0.09361,0.14652 -0.08544,0.23287c0.00818,0.08635 0.05507,0.16409 0.12749,0.21134l1.10598,0.72209" fill="none" stroke="#d2924a" stroke-width="2"/><path d="M281.01108,204.10186c-2.75347,4.54953 -5.7803,8.30989 -9.0805,11.28105c-9.38109,8.45336 -20.44073,12.62315 -33.17892,12.50935c-12.97321,-0.11504 -25.29331,-6.13779 -34.16601,-15.50774c-1.00441,-1.06131 -2.5407,-3.07136 -4.6089,-6.03017" fill="none" stroke="#d2924a" stroke-width="2"/><path d="M263.84997,138.95043c4.54953,2.75347 8.30989,5.7803 11.28105,9.0805c8.45336,9.38109 12.62315,20.44073 12.50935,33.17892c-0.11504,12.97321 -6.13779,25.29331 -15.50774,34.16601c-1.06131,1.00441 -3.07136,2.5407 -6.03017,4.6089" fill="none" stroke="#d2924a" stroke-width="2"/><path d="M213.84596,140.17873c1.09842,-1.02173 2.32301,-1.82575 3.67376,-2.41207c1.63278,-0.70878 46.49106,-1.47197 45.09083,-0.18553c-0.12019,0.10943 -0.16779,0.27733 -0.12308,0.43418c0.0447,0.15685 0.1741,0.27596 0.3346,0.30799c0.40572,0.07669 0.74836,0.28574 1.02791,0.62714" fill="none" stroke="#d2924a" stroke-width="2"/><path d="M213.71609,219.97364c-2.70894,-2.01377 -4.53097,-3.44617 -5.46612,-4.29719c-10.35705,-9.42562 -16.16828,-22.31347 -15.88254,-36.33315c0.19297,-9.51715 3.00951,-18.26121 8.44966,-26.23216c2.6174,-3.82962 5.74196,-7.1892 9.37367,-10.07873c1.21964,-0.96978 2.43804,-1.921 3.65521,-2.85367" fill="none" stroke="#d2924a" stroke-width="2"/><path d="M263.84997,138.95043c-0.99204,-0.60611 -1.73792,-0.79784 -2.23766,-0.57519c-1.00441,0.45025 -1.34952,1.15161 -1.03533,2.10407c0.03825,0.11979 0.11704,0.22223 0.22266,0.28945c1.5932,1.02667 3.1864,2.05211 4.7796,3.07631c0.63827,0.41067 1.2716,0.90916 1.89997,1.49548c0.70506,0.65807 1.3186,1.18995 1.84059,1.59568c1.15284,0.89803 2.10901,1.80843 2.86851,2.73121c0.03866,0.04843 0.06077,0.10695 0.06309,0.16699c0,0.07174 0.02103,0.13359 0.06309,0.18554c1.3656,1.76638 2.81284,3.45853 4.34172,5.07647c0.81639,0.86464 1.20604,1.96305 1.83688,2.97241c0.5121,0.82133 0.92401,1.59073 1.23572,2.30817c0.4453,1.0242 0.9438,2.02366 1.49548,2.99839c0.32161,0.56653 0.55416,1.1714 0.69765,1.81462c0.14101,0.64075 0.30677,1.27655 0.49725,1.90739c0.30924,1.0341 0.55292,1.98161 0.73104,2.84253c0.29687,1.44353 0.77187,2.86851 0.89803,4.28234c0.31666,3.61934 0.36738,7.24486 0.15214,10.87657c-0.03958,0.66549 -0.30924,2.11891 -0.80897,4.36028c-0.7768,3.4808 -1.80225,6.52248 -3.07631,9.12504c-0.32161,0.65559 -0.63455,1.36931 -0.93885,2.14117c-0.35872,0.90546 -0.70878,1.60187 -1.05018,2.08922c-1.11326,1.57588 -2.23642,3.14558 -3.36948,4.70909c-0.34635,0.47746 -0.76196,0.95741 -1.24686,1.43982c-0.44283,0.44036 -0.877,0.88814 -1.30251,1.34333c-0.09648,0.1039 -0.21276,0.17194 -0.34882,0.2041l-0.79042,0.18554c-0.08411,0.01732 -0.12617,-0.01608 -0.12617,-0.1002v-0.1707c0,-0.14843 -0.07545,-0.22636 -0.22636,-0.23378c-0.4651,-0.02227 -1.45466,-0.14596 -2.9687,-0.37109c-1.34581,-0.20039 -2.73121,0.01979 -4.15618,0.66054" fill="none" stroke="#d2924a" stroke-width="2"/><path d="M259.66783,213.96573c0.30058,-0.57148 0.65682,-1.16893 1.22459,-1.54001c0.95988,-0.63085 1.92595,-1.27902 2.8982,-1.9445" fill="none" stroke="#d8bf69" stroke-width="2"/><path d="M259.30415,216.55221l0.49354,2.57534c0.02474,0.13606 0.00124,0.26224 -0.07051,0.37851l-0.91659,1.48064c-0.06432,0.1039 -0.15338,0.17565 -0.26718,0.21523c-0.48736,0.16823 -0.95122,0.37604 -1.39158,0.62343c-0.55663,0.3043 -1.14666,0.32656 -1.71071,0.616c-0.50468,0.25977 -0.91906,0.41809 -1.24314,0.47499c-1.13182,0.2041 -2.20797,0.46386 -3.28041,0.88689c-0.36862,0.14349 -0.89556,0.27336 -1.58083,0.38965c-5.52425,0.93515 -10.73308,1.091 -15.62648,0.46757c-1.98903,-0.25481 -4.91814,-0.93515 -8.78735,-2.04099c-0.78671,-0.22513 -1.43116,-0.46386 -1.93337,-0.7162c-0.8436,-0.42056 -1.399,-0.83 -1.66618,-1.2283c-0.89309,-1.3186 -2.062,-2.31682 -3.50678,-2.99467c-0.76691,-0.36119 -1.48064,-0.80526 -2.14117,-1.3322c-1.86533,-1.48435 -3.70345,-3.00334 -5.51436,-4.55695c-0.80154,-0.68775 -1.63031,-1.55486 -2.48628,-2.60133c-0.65312,-0.7966 -1.43611,-1.71442 -2.34898,-2.75347c-1.68968,-1.92471 -3.15672,-4.21432 -4.4011,-6.86882c-0.53807,-1.15037 -1.12069,-2.14118 -1.48807,-3.19878c-0.43046,-1.24686 -1.01678,-2.50855 -1.36189,-3.65521c-1.0242,-3.39174 -1.57094,-7.10385 -1.64021,-11.13633c-0.09896,-5.86813 0.7298,-11.37382 2.48628,-16.5171c0.29192,-0.85103 0.69641,-1.78122 1.21346,-2.79058c0.4651,-0.90051 0.92895,-1.80225 1.39158,-2.70523c0.45272,-0.87947 0.58632,-2.13746 1.69216,-2.99467c0.09648,-0.07421 0.16575,-0.16946 0.20781,-0.28573c0.16823,-0.48736 0.42181,-0.92401 0.76073,-1.30994c0.79907,-0.90298 1.54496,-1.85172 2.23766,-2.84624c0.34882,-0.49725 0.93143,-0.62714 1.30623,-1.14667c1.06378,-1.4794 2.4232,-2.97365 4.07825,-4.48274c0.67786,-0.616 1.31613,-1.45837 1.91481,-2.5271c0.05937,-0.10885 0.08164,-0.22266 0.06679,-0.3414c-0.13111,-1.00441 0.23873,-1.76638 1.10956,-2.2859c1.28396,-0.76691 2.58276,-1.79236 3.89641,-3.07631c0.11713,-0.11607 0.13577,-0.29878 0.04452,-0.43613c-0.09126,-0.13734 -0.26693,-0.19093 -0.41931,-0.12792c-0.55663,0.23997 -1.13305,0.5257 -1.72927,0.85721c-0.70136,0.38965 -1.71443,1.33592 -2.84625,1.61795" fill="none" stroke="#d2924a" stroke-width="2"/><path d="M230.74157,143.02869c-0.23997,0.72485 -0.70259,1.27654 -1.38786,1.65505" fill="none" stroke="#c8a245" stroke-width="2"/><path d="M230.74157,143.02868l-1.38786,1.65505" fill="none" stroke="#ab8a20" stroke-width="2"/><path d="M207.70447,161.84652l-2.05953,2.47887c-0.07063,0.08481 -0.17536,0.13377 -0.28574,0.13359h-1.07615c-0.13026,0.00034 -0.24662,-0.0832 -0.28945,-0.20781c-0.61106,-1.80843 -0.16328,-3.35711 1.34333,-4.64601c1.06873,-0.90916 2.0113,0.2375 2.39722,1.30993" fill="none" stroke="#dbb960" stroke-width="2"/><path d="M207.70447,161.84652l0.02968,-0.93143" fill="none" stroke="#d7b255" stroke-width="2"/><path d="M264.51052,210.55174c1.44476,0.09895 2.82645,0.45396 4.14504,1.06502c0.11627,0.05443 0.19049,0.14348 0.22266,0.26718c0.15833,0.62838 0.00371,1.24067 -0.46386,1.83689" fill="none" stroke="#dcbe82" stroke-width="2"/><path d="M263.79061,210.48123l2.32672,0.08163c0.01237,0 0.01732,0.00866 0.01484,0.02598c0,0.00248 0,0.00494 0,0.00742c0,0.00495 -0.00247,0.00743 -0.00742,0.00743l-1.61423,-0.05195" fill="none" stroke="#dfc97b" stroke-width="2"/><path d="M264.80367,211.14918l-0.61971,0.16328c-0.13606,0.03711 -0.24863,0.00124 -0.33769,-0.10762c-0.08906,-0.1039 -0.21399,-0.07916 -0.3748,0.07422c-0.19792,0.19049 -0.23626,0.16328 -0.11504,-0.08164c0.2276,-0.46756 0.61229,-0.6828 1.15409,-0.64569" fill="none" stroke="#dcce8a" stroke-width="2"/><path d="M264.80367,211.14918c0.81887,0.38098 1.64763,0.71497 2.48629,1.00194c0.50962,0.1707 0.82876,0.40696 0.95741,0.70878c0.16823,0.38593 0.16328,0.83371 -0.01484,1.34334" fill="none" stroke="#dcd289" stroke-width="2"/><path d="M264.80367,211.14918c0.94998,-0.15833 1.76885,0.04453 2.4566,0.60858c0.10143,0.08164 0.21647,0.13359 0.34511,0.15586c0.81639,0.13606 1.08604,0.73847 0.80896,1.8072" fill="none" stroke="#d8c790" stroke-width="2"/><path d="M263.84997,138.95043c-0.99204,-0.60611 -1.73793,-0.79784 -2.23766,-0.57518c-1.00441,0.45025 -1.34952,1.15161 -1.03533,2.10407c0.03825,0.11979 0.11704,0.22222 0.22266,0.28945c1.5932,1.02667 3.1864,2.05211 4.7796,3.07631c0.63827,0.41067 1.2716,0.90916 1.89997,1.49548c0.70506,0.65807 1.3186,1.18995 1.84059,1.59568c1.15284,0.89803 2.10901,1.80843 2.8685,2.7312c0.03866,0.04843 0.06077,0.10695 0.06309,0.16699c0,0.07174 0.02103,0.13359 0.06309,0.18554c1.3656,1.76638 2.81284,3.45853 4.34172,5.07647c0.81639,0.86463 1.20604,1.96305 1.83689,2.97241c0.5121,0.82133 0.924,1.59073 1.23572,2.30817c0.4453,1.0242 0.9438,2.02366 1.49549,2.99839c0.32161,0.56653 0.55416,1.1714 0.69764,1.81462c0.14101,0.64075 0.30676,1.27655 0.49725,1.90739c0.30924,1.03409 0.55292,1.98161 0.73105,2.84253c0.29687,1.44353 0.77186,2.86851 0.89803,4.28234c0.31666,3.61934 0.36738,7.24486 0.15214,10.87657c-0.03958,0.66549 -0.30925,2.11891 -0.80897,4.36027c-0.7768,3.4808 -1.80225,6.52248 -3.07631,9.12504c-0.32161,0.65559 -0.63456,1.36931 -0.93885,2.14117c-0.35872,0.90546 -0.70878,1.60187 -1.05018,2.08922c-1.11326,1.57588 -2.23642,3.14558 -3.36948,4.70909c-0.34635,0.47746 -0.76196,0.95741 -1.24686,1.43982c-0.44283,0.44036 -0.87701,0.88814 -1.30252,1.34333c-0.09648,0.1039 -0.21276,0.17194 -0.34882,0.2041l-0.79042,0.18554c-0.08411,0.01732 -0.12616,-0.01608 -0.12616,-0.1002v-0.1707c0,-0.14843 -0.07546,-0.22636 -0.22636,-0.23378c-0.4651,-0.02227 -1.45466,-0.14596 -2.9687,-0.37109c-1.34581,-0.20039 -2.73121,0.01979 -4.15618,0.66054c-0.97225,0.66548 -1.93832,1.31365 -2.8982,1.9445c-0.56776,0.37109 -0.924,0.96853 -1.22459,1.54001c-0.27214,0.25481 -0.3748,0.56405 -0.308,0.92772l-0.05567,1.65876l0.49354,2.57534c0.02474,0.13606 0.00124,0.26224 -0.07051,0.37851l-0.91659,1.48064c-0.06432,0.1039 -0.15338,0.17565 -0.26718,0.21523c-0.48736,0.16823 -0.95122,0.37604 -1.39158,0.62343c-0.55663,0.3043 -1.14667,0.32656 -1.71071,0.616c-0.50468,0.25977 -0.91905,0.41809 -1.24314,0.47499c-1.13182,0.2041 -2.20797,0.46386 -3.28041,0.88689c-0.36861,0.14349 -0.89556,0.27336 -1.58083,0.38965c-5.52425,0.93515 -10.73308,1.091 -15.62648,0.46757c-1.98903,-0.25481 -4.91814,-0.93515 -8.78735,-2.04099c-0.78671,-0.22513 -1.43116,-0.46386 -1.93337,-0.7162c-0.8436,-0.42056 -1.399,-0.83 -1.66618,-1.2283c-0.89309,-1.3186 -2.062,-2.31682 -3.50678,-2.99467c-0.76691,-0.36119 -1.48064,-0.80526 -2.14117,-1.3322c-1.86533,-1.48435 -3.70345,-3.00334 -5.51436,-4.55695c-0.80154,-0.68775 -1.63031,-1.55486 -2.48628,-2.60133c-0.65312,-0.7966 -1.43611,-1.71442 -2.34898,-2.75347c-1.68968,-1.92471 -3.15672,-4.21432 -4.4011,-6.86882c-0.53807,-1.15037 -1.12069,-2.14118 -1.48807,-3.19878c-0.43046,-1.24686 -1.01678,-2.50855 -1.36189,-3.65521c-1.0242,-3.39174 -1.57094,-7.10385 -1.64021,-11.13633c-0.09896,-5.86813 0.7298,-11.37382 2.48628,-16.5171c0.29192,-0.85103 0.69641,-1.78122 1.21346,-2.79058c0.4651,-0.90051 0.92895,-1.80225 1.39158,-2.70523c0.45272,-0.87947 0.58632,-2.13746 1.69216,-2.99467c0.09648,-0.07421 0.16575,-0.16946 0.20781,-0.28573c0.16823,-0.48736 0.42181,-0.92401 0.76073,-1.30994c0.79907,-0.90298 1.54496,-1.85172 2.23766,-2.84624c0.34882,-0.49725 0.93143,-0.62714 1.30623,-1.14667c1.06378,-1.4794 2.4232,-2.97365 4.07825,-4.48274c0.67786,-0.616 1.31613,-1.45837 1.91481,-2.5271c0.05937,-0.10885 0.08164,-0.22266 0.06679,-0.3414c-0.13111,-1.00441 0.23873,-1.76638 1.10956,-2.2859c1.28396,-0.76691 2.58276,-1.79236 3.89641,-3.07631c0.11713,-0.11607 0.13577,-0.29878 0.04452,-0.43613c-0.09126,-0.13734 -0.26693,-0.19093 -0.41931,-0.12792c-0.55663,0.23997 -1.13305,0.5257 -1.72927,0.85721c-0.70136,0.38965 -1.71443,1.33592 -2.84625,1.61795c1.09842,-1.02173 2.32301,-1.82575 3.67376,-2.41207c1.63278,-0.70878 46.49106,-1.47197 45.09083,-0.18553c-0.12019,0.10943 -0.16779,0.27733 -0.12308,0.43418c0.0447,0.15685 0.17409,0.27596 0.33459,0.30799c0.40572,0.07669 0.74836,0.28574 1.02791,0.62713zM207.73416,160.9151c-0.38593,-1.07244 -1.32849,-2.2191 -2.39723,-1.30993c-1.50661,1.28892 -1.95439,2.83758 -1.34333,4.64601c0.04283,0.12461 0.15919,0.20815 0.28945,0.20781h1.07615c0.11038,0.00018 0.2151,-0.04878 0.28574,-0.13359l2.05953,-2.47886c-0.43541,0.88319 -0.96483,1.7404 -1.58826,2.57164c-0.26719,0.35377 -0.70878,0.73475 -1.32477,1.14294c-0.68032,0.45025 -1.16521,0.95369 -1.45466,1.51033c-0.36861,0.70754 -0.81392,2.02367 -1.33592,3.94837c-1.10213,4.07082 -1.28396,8.37173 -1.00564,12.56872c0.01732,0.29687 0.094,0.67661 0.23008,1.13924c0.28203,0.96112 0.26718,2.15973 0.43046,2.89448c0.43046,1.9346 0.90051,3.85931 1.41013,5.77412c0.23008,0.87577 0.5888,1.72679 1.07616,2.55308c0.80896,1.38044 1.60433,2.76831 2.38608,4.1636c0.01979,0.03958 0.05072,0.05938 0.09278,0.05938c0.03711,0 0.07669,0 0.11874,0c0.08164,-0.00248 0.13854,0.03463 0.1707,0.11132c0.64322,1.48682 1.52764,2.798 2.65328,3.93352c0.54426,0.55169 1.02544,1.12563 1.44353,1.72185c0.76938,1.10337 1.59691,1.94573 2.48257,2.5271c1.20727,0.79165 2.16097,1.48683 2.86109,2.08552c0.45272,0.38593 0.93762,0.68898 1.45466,0.90916c1.08358,0.46386 2.015,0.96483 2.88335,1.77009c0.1806,0.16823 0.44035,0.34387 0.77928,0.52694c1.92471,1.04399 3.87415,2.03479 5.84834,2.97241c0.71991,0.3414 1.4596,0.58014 2.2191,0.7162c0.7768,0.13854 1.55239,0.26347 2.32672,0.3748c1.04894,0.14843 2.22034,0.18307 3.5142,0.1039c1.53135,-0.094 3.06642,-0.15833 4.6052,-0.19297c0.12178,-0.00242 0.24316,0.02697 0.35253,0.08536c0.63085,0.33027 1.40271,0.01113 2.0818,0.08164c0.71743,0.07422 1.10708,0.1101 1.16893,0.10762c1.09595,-0.01979 2.25992,-0.06803 3.49193,-0.14473c0.13606,-0.00742 0.26842,-0.02845 0.39707,-0.06309c0.81392,-0.22266 1.59691,-0.40943 2.34898,-0.56034c0.90051,-0.17812 1.69711,-0.42056 2.3898,-0.72733c1.22706,-0.54426 2.44423,-1.11573 3.6515,-1.71442c0.1138,-0.0569 0.19915,-0.14349 0.25605,-0.25976c0.21276,-0.42551 0.53313,-0.75207 0.96111,-0.97967c0.11133,-0.0569 0.22884,-0.09896 0.35253,-0.12617c0.43046,-0.08906 0.79536,-0.308 1.09471,-0.65682c0.07669,-0.094 0.17565,-0.13235 0.29687,-0.11503l0.25605,0.0371c0.1039,0.01485 0.20163,-0.00494 0.29315,-0.05937l1.9111,-1.1949c0.08658,-0.05443 0.15091,-0.12741 0.19297,-0.21894c0.15338,-0.32656 0.42428,-0.51581 0.81268,-0.56776c0.12065,-0.01647 0.22965,-0.08376 0.30058,-0.18554c0.90051,-1.28891 2.25126,-2.14983 4.05228,-2.58276c1.06378,-0.25729 1.93213,-0.86587 2.60503,-1.82575c0.64817,-0.92278 0.98091,-1.39529 0.99822,-1.41755c1.56846,-1.96182 2.92046,-4.05598 4.05598,-6.28251c1.05142,-2.06572 1.86038,-3.79252 2.42691,-5.18038c0.75949,-1.8678 1.24191,-3.72819 1.44724,-5.58115c0.09153,-0.82628 0.1806,-1.50661 0.26719,-2.04098c0.14101,-0.86587 0.21276,-1.54743 0.21524,-2.04469c0.01484,-2.11025 -0.00371,-4.22174 -0.05567,-6.33446c-0.01113,-0.41561 0.13359,-0.81639 0.07793,-1.35076c-0.31666,-3.01818 -1.02049,-5.80257 -2.11149,-8.35317c-0.39335,-0.92525 -0.67043,-1.77627 -0.83124,-2.55308c-0.16575,-0.81391 -0.35748,-1.43734 -0.57518,-1.87028c-1.35076,-2.69905 -2.97241,-5.22862 -4.86495,-7.58873c-0.50715,-0.62837 -1.75524,-1.76143 -3.74427,-3.39916c-0.522,-0.42799 -1.27902,-1.15532 -2.27105,-2.18199c-1.41508,-1.46455 -3.06889,-2.63472 -4.96144,-3.51049c-0.03463,-0.01731 -0.05196,-0.00742 -0.05196,0.02969c0,0.03464 -0.00124,0.07051 -0.00371,0.10762c-0.00248,0.05937 -0.02721,0.07051 -0.07422,0.0334c-0.72239,-0.57395 -1.70329,-1.09471 -2.94272,-1.56228c-0.67909,-0.25605 -0.90546,-0.32284 -1.49177,0.21894c-1.00936,0.94256 -3.00581,1.74411 -4.21184,0.61229c-0.60611,-0.57148 -1.17635,-1.138 -1.71071,-1.69958c-0.13078,-0.1363 -0.33982,-0.15689 -0.48983,-0.04825c-0.84237,0.60858 -1.66247,1.20604 -2.64585,1.45466c-1.33591,0.33893 -2.54318,0.1274 -3.62181,-0.63456c-0.86464,-0.61229 -1.35818,-0.58632 -2.33785,-0.56776c-1.79112,0.03216 -3.58347,0.02721 -5.37706,-0.01484c-0.8535,-0.01856 -1.4695,-0.31914 -1.92223,-0.9908c-0.06788,-0.10123 -0.18282,-0.16072 -0.30466,-0.1577c-0.12184,0.003 -0.23369,0.0681 -0.2965,0.17255c-0.60116,0.98462 -1.34457,1.84059 -2.23023,2.56792c-0.09896,0.08164 -0.21276,0.12493 -0.34141,0.12988c-1.29386,0.05937 -2.33414,-0.40696 -3.12084,-1.399c-0.67909,-0.85721 -1.42497,-1.01679 -1.99645,0.04452c-0.02227,0.03711 -0.05195,0.04453 -0.08906,0.02227c-0.04453,-0.02968 -0.08535,-0.06308 -0.12246,-0.10019c-0.08411,-0.08906 -0.16946,-0.08783 -0.25604,0.00371l-0.97968,1.03533c-0.094,0.09896 -0.12246,0.21524 -0.08535,0.34883c0.50962,1.80843 0.40448,3.59089 -0.31543,5.34737c-0.04701,0.11627 -0.06061,0.2375 -0.04082,0.36366c0.02227,0.14349 -0.00743,0.27089 -0.08906,0.38222c-0.76073,1.03905 -1.091,1.79606 -2.17457,2.5939c-0.2944,0.21524 -0.77433,0.39954 -1.43982,0.55292c-1.0143,0.23255 -1.8777,0.7496 -2.59019,1.55114c-0.08411,0.094 -0.18802,0.14472 -0.31171,0.15215c-1.3322,0.09277 -2.20797,0.69764 -3.32494,1.22088c-0.4082,0.19297 -0.80031,0.42181 -1.17635,0.68651c-0.09153,0.06432 -0.19173,0.09895 -0.30058,0.1039c-0.99947,0.05937 -1.95068,0.29069 -2.85367,0.69393c-0.10885,0.04947 -0.16823,0.13236 -0.17812,0.24863z" fill="#e3ac6a" stroke="none" stroke-width="1"/><path d="M259.30415,216.55221l0.24863,0.81268c0.00742,0.02227 0.02226,0.0334 0.04453,0.0334c0.03711,0 0.07051,-0.01113 0.10019,-0.0334c0.05443,-0.03711 0.1002,-0.02968 0.13731,0.02227c0.77928,1.10584 2.69038,0.70506 3.93724,0.2746c1.63774,-0.56158 3.12456,-1.71442 4.46047,-3.45853c0.36367,-0.30677 0.42428,-0.46757 0.18183,-0.48241c0.46757,-0.59621 0.62219,-1.20851 0.46386,-1.83689c-0.03216,-0.12369 -0.10638,-0.21276 -0.22266,-0.26718c-1.3186,-0.61106 -2.70027,-0.96606 -4.14504,-1.06502l1.61423,0.05195c0.00495,0 0.00742,-0.00248 0.00742,-0.00743c0,-0.00248 0,-0.00494 0,-0.00742c0.00248,-0.01732 -0.00248,-0.02598 -0.01485,-0.02598l-2.32672,-0.08163c1.42498,-0.64075 2.81037,-0.86092 4.15618,-0.66054c1.51403,0.22513 2.5036,0.34882 2.9687,0.37109c0.15091,0.00742 0.22636,0.08535 0.22636,0.23378v0.1707c0,0.08411 0.04206,0.11752 0.12617,0.1002l0.79042,-0.18554c0.13606,-0.03216 0.25234,-0.1002 0.34882,-0.2041c0.42551,-0.4552 0.85968,-0.90298 1.30252,-1.34333c0.48488,-0.48241 0.90051,-0.96236 1.24686,-1.43982c1.13305,-1.56351 2.25621,-3.13321 3.36947,-4.70909c0.3414,-0.48736 0.69146,-1.18378 1.05018,-2.08922c0.3043,-0.77186 0.61724,-1.48559 0.93885,-2.14117c1.27407,-2.60256 2.29951,-5.64424 3.07631,-9.12504c0.49973,-2.24136 0.76939,-3.69479 0.80897,-4.36027c0.21524,-3.6317 0.16452,-7.25723 -0.15214,-10.87657c-0.12616,-1.41384 -0.60117,-2.83882 -0.89803,-4.28234c-0.17812,-0.86092 -0.4218,-1.80843 -0.73105,-2.84253c-0.19049,-0.63085 -0.35624,-1.26665 -0.49725,-1.90739c-0.14349,-0.64322 -0.37603,-1.24809 -0.69764,-1.81462c-0.55168,-0.97473 -1.05018,-1.97419 -1.49548,-2.99839c-0.31172,-0.71743 -0.72362,-1.48683 -1.23572,-2.30817c-0.63085,-1.00936 -1.02049,-2.10777 -1.83689,-2.97241c-1.52887,-1.61795 -2.97612,-3.3101 -4.34172,-5.07647c-0.04206,-0.05195 -0.06309,-0.1138 -0.06309,-0.18554c-0.00232,-0.06004 -0.02443,-0.11856 -0.06309,-0.16699c-0.75949,-0.92278 -1.71566,-1.83317 -2.86851,-2.7312c-0.522,-0.40572 -1.13553,-0.93762 -1.84059,-1.59568c-0.62837,-0.58632 -1.2617,-1.08481 -1.89996,-1.49548c-1.5932,-1.0242 -3.1864,-2.04964 -4.7796,-3.07631c-0.10562,-0.06722 -0.18441,-0.16965 -0.22266,-0.28945c-0.31419,-0.95246 0.03093,-1.65381 1.03533,-2.10407c0.49973,-0.22265 1.24562,-0.03092 2.23766,0.57519c4.54953,2.75347 8.30988,5.7803 11.28105,9.0805c8.45336,9.38109 12.62315,20.44073 12.50935,33.17892c-0.11504,12.97321 -6.13779,25.2933 -15.50774,34.16601c-1.06131,1.00441 -3.07136,2.54071 -6.03017,4.6089c-15.17747,9.88206 -34.51855,10.71329 -50.20069,1.25057l-2.1857,-1.2617c-2.70894,-2.01377 -4.53097,-3.44617 -5.46612,-4.29719c-10.35705,-9.42562 -16.16828,-22.31347 -15.88253,-36.33315c0.19297,-9.51715 3.00951,-18.26121 8.44966,-26.23216c2.6174,-3.82962 5.74195,-7.1892 9.37367,-10.07873c1.21964,-0.96978 2.43804,-1.92099 3.65521,-2.85367c1.13182,-0.28203 2.14488,-1.2283 2.84625,-1.61794c0.59621,-0.33151 1.17263,-0.61724 1.72926,-0.85721c0.15239,-0.06301 0.32806,-0.00942 0.41932,0.12792c0.09125,0.13734 0.07261,0.32006 -0.04452,0.43613c-1.31365,1.28397 -2.61245,2.3094 -3.89641,3.07631c-0.87082,0.51952 -1.24067,1.28149 -1.10956,2.2859c0.01485,0.11875 -0.00742,0.23255 -0.06679,0.3414c-0.59869,1.06873 -1.23696,1.9111 -1.91481,2.5271c-1.65505,1.50909 -3.01447,3.00334 -4.07825,4.48274c-0.3748,0.51952 -0.95741,0.6494 -1.30623,1.14667c-0.6927,0.99452 -1.43859,1.94325 -2.23766,2.84624c-0.33892,0.38593 -0.5925,0.82259 -0.76073,1.30994c-0.04205,0.11627 -0.11132,0.21152 -0.20781,0.28573c-1.10584,0.85721 -1.23943,2.1152 -1.69216,2.99467c-0.46262,0.90298 -0.92648,1.80473 -1.39158,2.70523c-0.51705,1.00936 -0.92153,1.93955 -1.21345,2.79058c-1.75648,5.14327 -2.58524,10.64897 -2.48629,16.5171c0.06927,4.03248 0.61601,7.7446 1.64021,11.13633c0.34511,1.14666 0.93143,2.40835 1.36189,3.65521c0.36738,1.0576 0.94999,2.04841 1.48806,3.19878c1.24438,2.65451 2.71141,4.94413 4.4011,6.86882c0.91288,1.03904 1.69586,1.95686 2.34898,2.75347c0.85597,1.04647 1.68474,1.91357 2.48629,2.60133c1.81091,1.55362 3.64902,3.0726 5.51436,4.55695c0.66054,0.52694 1.37426,0.97101 2.14117,1.3322c1.44477,0.67786 2.61369,1.67608 3.50678,2.99467c0.26718,0.3983 0.82258,0.80774 1.66618,1.2283c0.5022,0.25234 1.14666,0.49107 1.93336,0.7162c3.86921,1.10584 6.79832,1.78617 8.78735,2.04099c4.89341,0.62343 10.10223,0.46756 15.62648,-0.46757c0.68528,-0.11627 1.21222,-0.24615 1.58083,-0.38965c1.07244,-0.42303 2.1486,-0.6828 3.28041,-0.88689c0.32409,-0.0569 0.73847,-0.21524 1.24314,-0.47499c0.56405,-0.28945 1.15409,-0.31171 1.71071,-0.616c0.44036,-0.24739 0.90422,-0.4552 1.39158,-0.62343c0.1138,-0.03958 0.20286,-0.11132 0.26719,-0.21523l0.91658,-1.48064c0.07174,-0.11627 0.09525,-0.24245 0.07051,-0.37851z" fill="#fbc488" stroke="none" stroke-width="1"/><path d="M207.73416,160.9151l-0.02968,0.93143l-2.05953,2.47887c-0.07063,0.08481 -0.17536,0.13377 -0.28574,0.13359h-1.07615c-0.13026,0.00034 -0.24662,-0.0832 -0.28945,-0.20781c-0.61106,-1.80843 -0.16328,-3.35711 1.34333,-4.64601c1.06873,-0.90916 2.0113,0.2375 2.39722,1.30993z" fill="#fbe685" stroke="none" stroke-width="1"/><path d="M264.51052,210.55174c-0.54179,-0.03711 -0.92648,0.17812 -1.15409,0.64569c-0.12122,0.24492 -0.08288,0.27213 0.11504,0.08164c0.1608,-0.15338 0.28574,-0.17812 0.3748,-0.07421c0.08906,0.10885 0.20163,0.14472 0.33769,0.10761l0.61971,-0.16328c0.81886,0.38098 1.64763,0.71496 2.48628,1.00194c0.50962,0.1707 0.82876,0.40696 0.95741,0.70878c0.16823,0.38593 0.16328,0.83371 -0.01484,1.34334c-1.33591,1.74411 -2.82274,2.89695 -4.46047,3.45853c-1.24686,0.43046 -3.15795,0.83124 -3.93724,-0.27461c-0.03711,-0.05195 -0.08288,-0.05937 -0.1373,-0.02226c-0.02968,0.02226 -0.06309,0.0334 -0.1002,0.0334c-0.02226,0 -0.03711,-0.01113 -0.04453,-0.0334l-0.24863,-0.81268l0.05567,-1.65876l0.308,-0.92772c0.30058,-0.57148 0.65682,-1.16893 1.22459,-1.54001c0.95988,-0.63085 1.92595,-1.27901 2.8982,-1.9445l2.32671,0.08164c0.01237,0 0.01732,0.00866 0.01485,0.02598c0,0.00248 0,0.00494 0,0.00742c0,0.00495 -0.00247,0.00742 -0.00742,0.00742z" fill="#f2dea1" stroke="none" stroke-width="1"/><path d="M264.51052,210.55174c1.44477,0.09896 2.82645,0.45397 4.14504,1.06502c0.11627,0.05443 0.19049,0.14348 0.22266,0.26718c0.15833,0.62838 0.00371,1.24067 -0.46386,1.83689c0.27708,-1.06873 0.00743,-1.67113 -0.80896,-1.8072c-0.12864,-0.02226 -0.24368,-0.07422 -0.34511,-0.15586c-0.68775,-0.56405 -1.50661,-0.76691 -2.4566,-0.60858l-0.61971,0.16328c-0.13606,0.03711 -0.24863,0.00124 -0.33769,-0.10761c-0.08906,-0.1039 -0.21399,-0.07917 -0.3748,0.07421c-0.19792,0.19049 -0.23626,0.16328 -0.11504,-0.08164c0.22761,-0.46756 0.6123,-0.6828 1.15409,-0.64569z" fill="#fbedb4" stroke="none" stroke-width="1"/><path d="M268.41435,213.72082c0.24244,0.01484 0.18184,0.17565 -0.18183,0.48241c0.17812,-0.50962 0.18307,-0.95741 0.01484,-1.34334c-0.12864,-0.30182 -0.44778,-0.53807 -0.95741,-0.70878c-0.83866,-0.28697 -1.66742,-0.62096 -2.48628,-1.00194c0.94998,-0.15833 1.76885,0.04453 2.4566,0.60858c0.10143,0.08164 0.21647,0.13359 0.34511,0.15586c0.81639,0.13606 1.08605,0.73847 0.80897,1.8072z" fill="#fbedb4" stroke="none" stroke-width="1"/><path d="M207.70447,161.84652l0.02968,-0.93143l0.08906,-1.03905c0.0099,-0.11627 0.06927,-0.19915 0.17812,-0.24863c0.90298,-0.40324 1.8542,-0.63456 2.85367,-0.69393c0.10885,-0.00495 0.20905,-0.03958 0.30058,-0.1039c0.37604,-0.26471 0.76815,-0.49355 1.17635,-0.68651c1.11698,-0.52324 1.99274,-1.1281 3.32494,-1.22088c0.12369,-0.00742 0.2276,-0.05814 0.31171,-0.15215c0.71249,-0.80154 1.57588,-1.3186 2.59019,-1.55114c0.66549,-0.15338 1.14541,-0.33769 1.43982,-0.55292c1.08357,-0.79784 1.41384,-1.55486 2.17457,-2.5939c0.08163,-0.11132 0.11133,-0.23873 0.08906,-0.38222c-0.01979,-0.12616 -0.00619,-0.24739 0.04082,-0.36366c0.71991,-1.75648 0.82505,-3.53894 0.31543,-5.34737c-0.03711,-0.13359 -0.00866,-0.24987 0.08535,-0.34883c0,0 0.90161,-3.5031 0.98572,-3.41404c0.03711,0.03711 3.52887,-0.94881 4.20797,-0.0916c0.7867,0.99204 3.34132,2.18581 3.94248,1.2012c0.06281,-0.10445 0.17466,-0.16954 0.2965,-0.17255c0.12184,-0.00301 0.23677,0.05648 0.30466,0.1577c0.45272,0.67166 1.06873,0.97225 1.92223,0.9908c1.79358,0.04206 3.58594,0.04701 5.37706,0.01484c0.97967,-0.01856 8.96456,-0.34041 9.09534,-0.20409c0.53437,0.56158 6.73523,0.6123 7.41432,0.86835c1.23943,0.46756 2.22033,0.98833 2.94272,1.56228c0.04701,0.03711 0.07174,0.02598 0.07422,-0.0334c0.00248,-0.03711 0.00371,-0.07298 0.00371,-0.10762c0,-0.03711 0.01732,-0.047 0.05196,-0.02969c1.89254,0.87577 3.54636,2.04593 4.96144,3.51049c0.99204,1.02667 1.74906,1.75401 2.27105,2.18199c1.98903,1.63773 3.23711,2.77079 3.74427,3.39916c1.89254,2.36012 3.5142,4.88969 4.86495,7.58873c0.21771,0.43293 0.40944,1.05636 0.57519,1.87028c0.1608,0.7768 0.43788,1.62784 0.83123,2.55308c1.09099,2.5506 1.79483,5.335 2.11149,8.35317c0.05567,0.53437 -0.08905,0.93515 -0.07793,1.35076c0.05195,2.11273 0.07051,4.22421 0.05567,6.33446c-0.00248,0.49725 -0.07422,1.17882 -0.21524,2.04469c-0.08659,0.53437 -0.17565,1.21469 -0.26719,2.04098c-0.20534,1.85296 -0.68775,3.71335 -1.44724,5.58115c-0.56653,1.38787 -1.37549,3.11466 -2.42691,5.18038c-1.13553,2.22652 -2.48753,4.32069 -4.05598,6.28251c-0.01732,0.02227 -0.35006,0.49478 -0.99822,1.41755c-0.67291,0.95988 -1.54125,1.56846 -2.60503,1.82575c-1.80101,0.43294 -3.15177,1.29386 -4.05228,2.58276c-0.07093,0.10178 -0.17993,0.16907 -0.30058,0.18554c-0.3884,0.05195 -0.65929,0.2412 -0.81268,0.56776c-0.04206,0.09153 -0.10638,0.16451 -0.19297,0.21894l-1.9111,1.1949c-0.09153,0.05443 -0.18925,0.07422 -0.29315,0.05937l-0.25605,-0.0371c-0.12122,-0.01732 -0.22018,0.02103 -0.29687,0.11503c-0.29934,0.34882 -0.66424,0.56776 -1.09471,0.65682c-0.12369,0.02721 -0.24121,0.06927 -0.35253,0.12617c-0.42799,0.2276 -0.74836,0.55416 -0.96111,0.97967c-0.0569,0.11627 -0.14225,0.20286 -0.25604,0.25976c-1.20727,0.59869 -2.42444,1.17016 -3.6515,1.71442c-0.6927,0.30677 -1.4893,0.54921 -2.38981,0.72733c-0.75207,0.15091 -1.53506,0.33769 -2.34898,0.56034c-0.12864,0.03463 -0.261,0.05567 -0.39707,0.06309c-1.23201,0.07669 -2.39598,0.12494 -3.49193,0.14473c-0.06185,0.00248 -0.45149,-0.0334 -1.16893,-0.10762c-0.67909,-0.07051 -1.45095,0.24863 -2.0818,-0.08164c-0.10937,-0.05838 -0.23075,-0.08778 -0.35253,-0.08536c-1.53877,0.03463 -3.07384,0.09896 -4.6052,0.19297c-1.29386,0.07916 -2.46526,0.04453 -3.5142,-0.1039c-0.77433,-0.11132 -1.54991,-0.23625 -2.32672,-0.3748c-0.75949,-0.13606 -1.49919,-0.3748 -2.2191,-0.7162c-1.97419,-0.93762 -3.92363,-1.92842 -5.84834,-2.97241c-0.33893,-0.18307 -0.59869,-0.35872 -0.77928,-0.52694c-0.86834,-0.80526 -1.79978,-1.30623 -2.88335,-1.77009c-0.51705,-0.22018 -1.00194,-0.52323 -1.45466,-0.90916c-0.70012,-0.59869 -1.65381,-1.29387 -2.86109,-2.08552c-0.88566,-0.58137 -1.71318,-1.42374 -2.48257,-2.5271c-0.41809,-0.59621 -0.89927,-1.17016 -1.44353,-1.72185c-1.12563,-1.13553 -2.01006,-2.4467 -2.65328,-3.93352c-0.03216,-0.07669 -0.08906,-0.11379 -0.1707,-0.11132c-0.04205,0 -0.08163,0 -0.11874,0c-0.04206,0 -0.07299,-0.01979 -0.09278,-0.05938c-0.78176,-1.39529 -1.57712,-2.78316 -2.38608,-4.1636c-0.48736,-0.82629 -0.84608,-1.67731 -1.07616,-2.55308c-0.50962,-1.91481 -0.97967,-3.83952 -1.41013,-5.77412c-0.16328,-0.73475 -0.14843,-1.93337 -0.43046,-2.89448c-0.13606,-0.46262 -0.21276,-0.84237 -0.23008,-1.13924c-0.27832,-4.197 -0.09648,-8.4979 1.00564,-12.56872c0.522,-1.92471 0.96731,-3.24083 1.33592,-3.94837c0.28945,-0.55663 0.77434,-1.06007 1.45466,-1.51033c0.616,-0.4082 1.0576,-0.78917 1.32477,-1.14294c0.62343,-0.83123 1.15284,-1.68845 1.58826,-2.57164z" fill="#d2924a" stroke="none" stroke-width="1"/><path d="M261.67212,137.91229c-0.19865,-0.03047 -0.39182,-0.13771 -0.5795,-0.32173c-0.04133,-0.03904 -0.09483,-0.06288 -0.15173,-0.06764c-0.58132,-0.04388 -1.05723,0.03778 -1.42772,0.24496c-0.75683,0.42168 -0.90246,1.02676 -0.4369,1.81528c0.02741,0.04534 0.06746,0.08159 0.11516,0.1042c0.58864,0.27421 1.47343,0.85005 1.36923,1.5959c-0.23034,-0.78973 -1.01093,-1.06576 -1.70926,-1.21932c-0.15561,-0.03352 -0.26493,-0.17362 -0.25958,-0.33271l0.09871,-3.23387c0.00699,-0.2146 0.17519,-0.38912 0.38938,-0.404c1.4588,-0.09323 1.46978,-1.70011 1.40945,-2.956c-0.04265,-0.87382 -0.46068,-1.38811 -1.25406,-1.54289c-0.09162,-0.01771 -0.16327,-0.08936 -0.18098,-0.18098c-0.11151,-0.58682 -0.34734,-1.99991 -1.09685,-2.1169c-0.48627,-0.07556 -1.17118,-0.15721 -2.05475,-0.24496c-2.1096,-0.2084 -2.12422,1.13706 -2.07487,2.74028c0.00318,0.09431 -0.04111,0.18394 -0.11794,0.23872c-0.07683,0.05478 -0.17601,0.06742 -0.26413,0.03366c-0.7422,-0.28518 -1.78786,-0.56853 -2.52274,-0.31991c-0.77693,0.26142 -1.45514,1.19555 -1.8756,1.91765c-0.02398,0.0404 -0.06953,0.06288 -0.11618,0.05734c-0.04665,-0.00553 -0.08568,-0.03805 -0.09953,-0.08293c-0.28884,-0.96888 -1.10598,-2.01637 -2.21563,-2.01453c-0.91038,0 -1.79212,0.16575 -2.64523,0.49724c-0.04429,0.01675 -0.08342,0.04515 -0.11334,0.08227l-0.44422,0.54659c-0.04199,0.0512 -0.11703,0.06078 -0.17184,0.02194c-0.93354,-0.69102 -1.98469,-1.05663 -3.15344,-1.09685c-1.7257,-0.0585 -3.23143,0.46007 -4.51718,1.55569c-0.48505,0.41436 -0.86285,0.86345 -1.1334,1.34729c-0.09871,0.1755 -0.15356,0.53197 -0.32357,0.73489c-0.07556,0.09019 -0.11578,0.07617 -0.12066,-0.04204c-0.05667,-1.4844 0.10055,-2.9304 0.09324,-4.40384c-0.00549,-0.6965 0.19743,-1.94142 -0.52649,-2.32531c-0.83603,-0.44361 -1.85002,-0.66054 -3.04192,-0.6508c-0.60875,0.00549 -0.99081,0.34003 -1.276,0.82447c-0.15112,0.25959 -0.22424,0.63191 -0.21937,1.11695c0.01341,1.25894 0.03169,2.52945 0.05485,3.81154c0.00193,0.03924 -0.02192,0.07516 -0.05886,0.08859c-0.03693,0.01343 -0.07829,0.00122 -0.10202,-0.0301c-0.29249,-0.36683 -0.54598,-0.76657 -0.76048,-1.19921c-0.25593,-0.52039 -0.482,-0.92989 -0.67822,-1.22847c-0.42655,-0.65567 -0.80923,-1.33693 -1.14803,-2.04378c-0.20474,-0.42411 -0.7422,-1.10782 -1.19373,-1.23761c-0.90307,-0.25959 -2.20466,0.28884 -3.08762,0.55574c-0.4692,0.14259 -0.79947,0.31077 -0.99082,0.50455c-0.92318,0.93231 -0.02925,1.91766 0.02193,3.00901c0.16209,3.43557 0.30773,6.87112 0.43691,10.30669c0.02316,0.63251 0.26995,1.13279 0.74037,1.50085c0.74037,0.57768 2.31068,0.27422 3.14794,0.04388c0.05595,-0.01549 0.10577,-0.04807 0.14259,-0.09323c0.52161,-0.66176 0.76597,-1.38934 0.73307,-2.18272c-0.04265,-1.07369 -0.08532,-2.15042 -0.12797,-3.23021c-0.00366,-0.11699 0.02194,-0.12371 0.07678,-0.02011c0.79522,1.47526 1.91765,3.18451 3.51721,5.35992c0.55208,0.74951 2.15348,0.44056 2.90116,0.22851c0.30224,-0.08653 0.52892,-0.24191 0.68005,-0.46615c0.60327,-0.89576 0.36745,-3.14429 0.30894,-4.19909c-0.00008,-0.01608 0.01149,-0.02987 0.02735,-0.03259c0.01585,-0.00272 0.03135,0.00643 0.03663,0.02162c1.17241,3.70003 3.68418,5.30081 7.53532,4.80236c0.31686,-0.04143 0.91709,-0.21632 1.80066,-0.52466c0.28639,-0.09994 0.56548,-0.00731 0.83726,0.27787c0.03345,0.03588 0.07649,0.06184 0.12431,0.07495c0.79705,0.22669 3.12418,0.63982 3.66529,-0.19926c0.3522,-0.54355 0.6837,-1.07308 0.99448,-1.5886c0.02658,-0.04456 0.07478,-0.0717 0.12666,-0.07132c0.05188,0.00038 0.09969,0.02821 0.12561,0.07315c0.404,0.69285 1.04931,2.02185 1.91948,2.04562c1.07491,0.03047 2.14494,-0.0451 3.2101,-0.22669c0.06363,-0.01174 0.12067,-0.04545 0.16088,-0.09507l0.57219,-0.70564c0.06852,-0.08388 0.19082,-0.09916 0.27787,-0.03473c0.85676,0.64592 1.8171,0.99448 2.88105,1.04567c1.00544,0.04935 1.79333,0.05118 2.25218,-0.89393c0.06094,0.07556 0.08165,0.1365 0.06215,0.18281c-0.00853,0.02316 -0.00426,0.04327 0.0128,0.06032c0.13345,0.12613 0.19926,0.30894 0.33088,0.41863c0.19499,0.16088 -0.57709,1.44605 -0.95977,1.49358c-0.45702,0.05728 -0.68857,0.08592 -0.69467,0.08592c-0.72148,-0.00731 -1.59531,-0.10603 -2.62147,-0.29614c-1.19556,-0.22119 -2.41671,0.00549 -3.7055,0.09689c-0.33028,0.02438 -0.66298,0.04632 -0.99812,0.06582c-0.49541,0.00731 -0.89028,0.03108 -1.40213,-0.10969c-0.84457,-0.23156 -1.76409,-0.22912 -2.75857,0.00731c-1.04079,0.2474 -2.16078,0.23765 -3.36,-0.02925c-0.53258,-0.11822 -0.92134,-0.17855 -1.16631,-0.18098c-0.88113,-0.00731 -1.8299,0.30164 -2.53371,0.34734c-1.3217,0.08409 -2.12971,-0.2541 -3.25215,-0.53197c-0.273,-0.06824 -0.54659,-0.19194 -0.8208,-0.3711c-0.41436,-0.27177 -0.85189,-0.49541 -1.31256,-0.6709c-0.17936,-0.06881 -0.38286,-0.00624 -0.49358,0.15173c-0.81897,1.17363 -2.50264,1.3747 -3.87369,1.27234c-0.5667,-0.04143 -1.03529,-0.18952 -1.40578,-0.44423c-0.44483,-0.30589 -0.79765,-0.70563 -1.05846,-1.19921c-0.05782,-0.10959 -0.16159,-0.18761 -0.28291,-0.21273c-0.12133,-0.02512 -0.24755,0.0053 -0.34412,0.08293c-0.40949,0.33149 -0.79887,0.73976 -1.16814,1.22481c-0.15355,0.20109 -0.60875,0.45885 -0.8464,0.51552c-1.30037,0.31565 -2.5983,0.29493 -3.8938,-0.06215c-0.04833,-0.0141 -0.09973,-0.01021 -0.14442,0.01096l-0.66542,0.31077c-0.05728,0.02681 -0.10542,0.0646 -0.14442,0.11334c-0.2608,0.32418 -0.45519,0.68492 -0.58315,1.08222c-0.01884,0.05901 -0.05765,0.10947 -0.10969,0.14259c-0.24374,0.1499 -0.4759,0.31077 -0.6965,0.48261c-0.01219,0.00975 -2.69096,-2.23391 -1.84822,-2.74942c0.87748,-0.53502 1.7318,-1.1066 2.56296,-1.71473c0.08166,-0.05972 0.13162,-0.12736 0.1499,-0.20291c0.02072,-0.07922 0.01829,-0.1566 -0.00731,-0.23216c-0.01773,-0.05423 -0.01579,-0.11311 0.00549,-0.16635c0.12248,-0.3126 0.33271,-0.55939 0.42046,-0.8464c0.12796,-0.41924 0.15477,-0.83909 0.08044,-1.25954c-0.09262,-0.51674 -0.14076,-0.84091 -0.14442,-0.97253c-0.01585,-0.62399 -0.02621,-1.22419 -0.03108,-1.80065c-0.00033,-0.09187 -0.04693,-0.17736 -0.12411,-0.22771c-0.07719,-0.05035 -0.17471,-0.05889 -0.25978,-0.02273c-0.62154,0.26567 -1.21749,0.55878 -1.78786,0.8793c-0.93354,0.52527 -1.51242,0.84701 -1.73667,0.96522c-0.71173,0.3778 -1.41859,0.77754 -2.12057,1.19922c0.86528,-0.73733 1.77263,-1.31865 2.72201,-1.74398c0.16209,-0.07312 0.30164,-0.14685 0.41863,-0.22119c0.14625,-0.09262 0.28457,-0.16087 0.41497,-0.20474c0.41436,-0.13772 0.78608,-0.35343 1.11512,-0.64714c0.04388,-0.04022 0.09506,-0.05972 0.15356,-0.0585c0.72027,0.01584 1.07126,-0.33271 1.05297,-1.04566c-0.03473,-1.31621 0.0914,-2.90664 -0.26142,-4.16801c-0.27787,-0.99325 -0.38024,-1.92009 -0.30711,-2.7805c0.1298,-1.53559 4.18995,-2.50994 5.2813,-2.42768c0.5923,0.04388 1.07857,0.57219 1.5173,0.93414c0.68735,0.5667 0.97253,1.2833 1.23578,2.08766c0.01724,0.05763 0.07326,0.09464 0.13303,0.08791c0.05977,-0.00674 0.10613,-0.05531 0.11011,-0.11533c0.05667,-0.61606 0.0329,-1.27417 0.33271,-1.78968c0.64897,-1.12244 1.87012,-1.1919 3.11504,-1.17728c0.66908,0.00731 1.21628,0.10054 1.64161,0.2797c0.6447,0.26934 1.17971,0.67395 1.60505,1.21385c0.73489,0.93231 0.44239,2.20466 0.34368,3.30515c-0.0093,0.10287 0.04038,0.20216 0.1283,0.25637c0.08792,0.05422 0.19893,0.05405 0.28668,-0.00045c1.60688,-1.00362 3.94681,-1.62516 5.84801,-1.1462c0.51308,0.12797 0.77754,0.19378 0.79338,0.19744c0.45093,0.0914 0.90184,0.17976 1.35277,0.26507c0.06094,0.01219 0.12004,0.00609 0.17732,-0.01829c0.5728,-0.24374 1.16205,-0.40888 1.76775,-0.49541c1.34546,-0.19378 2.4679,-0.24313 3.33258,0.83178c0.04631,0.05761 0.11554,0.09201 0.18941,0.09412c0.07387,0.00211 0.14496,-0.02828 0.19448,-0.08315c0.15112,-0.16575 0.3321,-0.31139 0.54293,-0.4369c0.93232,-0.55451 1.91826,-0.76597 2.95783,-0.63434c0.05861,0.00726 0.11754,-0.01068 0.16217,-0.04937c0.04461,-0.03869 0.07071,-0.0945 0.07182,-0.15354c0.00731,-0.69589 0.248,-1.25102 0.72209,-1.66538c0.91404,-0.79887 2.56113,-0.52283 3.68906,-0.46616c1.06638,0.05485 1.82808,0.60327 2.28509,1.64527c0.28396,0.64713 0.73854,1.25284 1.36374,1.8171c0.31626,0.28518 0.44788,0.70381 0.47896,1.159c0.09871,1.46794 0.25592,2.81158 -0.89759,3.93402c-0.06219,0.06086 -0.09361,0.14652 -0.08544,0.23287c0.00818,0.08635 0.05507,0.16409 0.12749,0.21134z" fill="#e3ac6a" stroke="none" stroke-width="1"/><g stroke="none" stroke-width="1"><path d="M219.81245,146.10213c1.60314,1.01102 2.08346,2.56378 1.44094,4.65826c-1.09606,2.60787 -2.50393,2.98582 -4.55432,4.24251l-4.37952,1.93228c-0.15748,0.07244 -0.32283,0.10866 -0.49606,0.10866h-0.59055c-0.32756,-0.00315 -0.34488,0.0189 -0.05197,0.06614c0.37323,0.05669 0.62362,-0.08031 0.9496,0.07559h-1.25669c-0.16063,0 -0.30709,-0.04567 -0.43937,-0.13701l-0.54331,-0.37323c-0.05018,-0.03505 -0.11818,-0.02951 -0.16203,0.01319c-0.04385,0.0427 -0.05119,0.11052 -0.0175,0.16162c0.48504,0.74646 1.26457,0.89606 2.33858,0.44882c-0.18582,0.32126 -0.27874,0.3748 -0.27874,0.16063c-0.93543,0.30866 -1.66771,0.27874 -2.19685,-0.08976c-0.85039,-0.60472 -0.83149,-2.77795 -0.37795,-3.65669c1.34488,-2.61732 3.1496,-4.80629 5.41416,-6.56692c1.59685,-1.24094 3.3307,-1.58897 5.20156,-1.04409zM210.57625,156.70368l-0.81732,-1.12913c-0.08819,-0.12599 -0.16063,-0.11654 -0.21732,0.02835c-0.11968,0.31811 -0.04567,0.57323 0.22205,0.76535c0.07874,0.05669 0.14646,0.12756 0.20315,0.2126c0.16378,0.24567 0.33543,0.35748 0.51496,0.33543c0.15433,-0.01575 0.18582,-0.08661 0.09449,-0.2126z" fill="#fefbe0"/><path d="M210.48176,156.91628c-0.17953,0.02205 -0.35118,-0.08976 -0.51496,-0.33543c-0.05669,-0.08504 -0.12441,-0.15591 -0.20315,-0.2126c-0.26772,-0.19213 -0.34173,-0.44724 -0.22205,-0.76535c0.05669,-0.14488 0.12913,-0.15433 0.21732,-0.02835l0.81732,1.12913c0.09134,0.12599 0.05984,0.19685 -0.09449,0.2126z" fill="#f2dea1"/><path d="M212.13058,157.18557c-0.0252,0.0378 -0.05197,0.07559 -0.08031,0.11339c-1.07401,0.44724 -1.85354,0.29764 -2.33858,-0.44882c-0.03369,-0.05109 -0.02635,-0.11892 0.0175,-0.16162c0.04385,-0.0427 0.11185,-0.04823 0.16203,-0.01319l0.54331,0.37323c0.13228,0.09134 0.27874,0.13701 0.43937,0.13701z" fill="#e8c78f"/></g><path d="M221.53742,185.27032c-0.00319,-0.02934 0.00548,-0.05873 0.02409,-0.08163c0.01861,-0.0229 0.0456,-0.03741 0.07497,-0.04029l1.01729,-0.09906c0.31076,-0.03125 0.61825,0.03229 0.85477,0.17663c0.23652,0.14434 0.3827,0.35766 0.40636,0.593l0.01143,0.1524c0.0474,0.48903 -0.43651,0.93716 -1.08206,1.00204l-1.01348,0.10287c-0.02934,0.00319 -0.05873,-0.00548 -0.08163,-0.02409c-0.0229,-0.01861 -0.03741,-0.04561 -0.04029,-0.07497z" fill="#d2924a" stroke="none" stroke-width="1"/><path d="M243.18297,141.73482c-1.63979,1.44601 -4.48062,1.51364 -6.2374,0.23765c-1.17484,-0.85554 -1.79943,-2.12423 -1.87377,-3.80606c-0.11517,-2.62694 1.14438,-4.59212 3.70917,-5.07839c2.1425,-0.40584 4.25027,0.50089 4.91569,2.70738c0.21206,0.70198 0.47713,1.72936 0.31626,2.48252c-0.01142,0.0542 -0.0598,0.0926 -0.11517,0.0914l-5.9321,-0.05301c-0.04968,-0.00116 -0.09373,-0.03221 -0.11151,-0.07861c-0.1499,-0.39609 -0.20535,-0.80375 -0.16635,-1.22298c0.00528,-0.064 0.05658,-0.11452 0.12066,-0.11883l3.47334,-0.23582c0.25837,-0.01706 0.3644,-0.15234 0.31809,-0.40583c-0.18403,-1.01032 -0.76292,-1.5106 -1.73667,-1.50086c-2.31434,0.02194 -2.98525,2.22659 -2.53371,4.10768c0.47348,1.97798 2.12788,2.53371 3.96145,2.0639c0.66664,-0.17062 1.24614,-0.51064 1.7385,-1.02007c0.06167,-0.06322 0.16198,-0.06723 0.22851,-0.00914c0.65446,0.58132 0.55939,1.27966 -0.07495,1.83905z" fill="#fefbef" stroke="none" stroke-width="1"/><path d="M248.91581,139.77327c-0.08166,-0.12309 -0.16392,-0.12309 -0.24679,0l-2.02185,3.00718c-0.06458,0.09487 -0.17445,0.14736 -0.28701,0.1371l-1.68548,-0.15538c-0.07353,-0.00698 -0.13801,-0.05204 -0.16984,-0.1187c-0.03183,-0.06665 -0.02635,-0.14512 0.01445,-0.2067c0.82629,-1.24065 1.68854,-2.48679 2.58672,-3.73841c0.39304,-0.5466 0.55208,-0.83361 0.13893,-1.46978c-0.77693,-1.19556 -1.7842,-2.53553 -2.45145,-3.87734c-0.01974,-0.03949 -0.01896,-0.0861 0.00205,-0.12523c0.02102,-0.03913 0.05971,-0.066 0.10398,-0.07221l1.57397,-0.21206c0.20575,-0.02802 0.40987,0.05996 0.53014,0.22851l1.89206,2.64523c0.03285,0.04572 0.08584,0.07268 0.14215,0.07231c0.05631,-0.00037 0.10894,-0.028 0.1412,-0.07414l1.88109,-2.72018c0.07661,-0.11015 0.20799,-0.16917 0.34185,-0.15356l1.25589,0.15356c0.29859,0.03656 0.36501,0.18037 0.19927,0.43143l-2.47705,3.74207c-0.13447,0.20379 -0.12939,0.46971 0.01279,0.66908c0.99204,1.38446 1.95544,2.75917 2.89019,4.12414c0.12188,0.17915 0.20169,0.34307 0.23948,0.49175c0.03169,0.13284 -0.02011,0.20353 -0.15538,0.21206l-2.20831,0.12797c-0.11422,0.00689 -0.2235,-0.04741 -0.28701,-0.14259z" fill="#fefbef" stroke="none" stroke-width="1"/><g stroke="none" stroke-width="1"><path d="M260.56065,141.28327c0.02681,0.68004 -0.09872,1.34485 -0.37659,1.99443c-0.45885,0.94511 -1.24674,0.94329 -2.25218,0.89393c-1.06394,-0.05118 -2.02429,-0.39975 -2.88105,-1.04567c-0.08705,-0.06443 -0.20935,-0.04914 -0.27787,0.03473l-0.57219,0.70564c-0.04019,0.04961 -0.09725,0.08333 -0.16088,0.09507c-1.06516,0.18159 -2.13519,0.25715 -3.2101,0.22669c-0.87016,-0.02377 -1.51547,-1.35277 -1.91948,-2.04562c-0.02592,-0.04494 -0.07373,-0.07278 -0.12561,-0.07315c-0.05188,-0.00038 -0.10008,0.02677 -0.12666,0.07132c-0.31077,0.51551 -0.64226,1.04505 -0.99448,1.5886c-0.5411,0.83909 -2.86825,0.42594 -3.66529,0.19926c-0.04781,-0.01312 -0.09086,-0.03907 -0.12431,-0.07495c-0.27177,-0.28518 -0.55086,-0.3778 -0.83726,-0.27787c-0.88357,0.30834 -1.48379,0.48322 -1.80066,0.52466c-3.85114,0.49845 -6.36292,-1.10233 -7.53532,-4.80235c-0.00528,-0.01519 -0.02078,-0.02433 -0.03663,-0.02162c-0.01585,0.00272 -0.02742,0.0165 -0.02735,0.03259c0.0585,1.0548 0.29432,3.30333 -0.30894,4.19909c-0.15112,0.22425 -0.3778,0.37962 -0.68005,0.46615c-0.74768,0.21206 -2.34908,0.521 -2.90116,-0.22851c-1.59957,-2.17541 -2.722,-3.88466 -3.51721,-5.35992c-0.05485,-0.10359 -0.08044,-0.09689 -0.07678,0.02011c0.04265,1.07978 0.08532,2.15652 0.12797,3.23021c0.0329,0.79338 -0.21145,1.52096 -0.73307,2.18272c-0.03682,0.04517 -0.08664,0.07775 -0.14259,0.09323c-0.83726,0.23033 -2.40757,0.53379 -3.14794,-0.04388c-0.47043,-0.36805 -0.71722,-0.86833 -0.74037,-1.50085c-0.12918,-3.43557 -0.27482,-6.87112 -0.43691,-10.30669c-0.05118,-1.09136 -0.94511,-2.07669 -0.02193,-3.00901c0.19134,-0.19378 0.52161,-0.36195 0.99082,-0.50455c0.88296,-0.2669 2.18455,-0.81532 3.08762,-0.55574c0.45153,0.1298 0.98899,0.81349 1.19373,1.23761c0.33881,0.70686 0.72148,1.38811 1.14803,2.04378c0.19621,0.29859 0.42229,0.70808 0.67822,1.22847c0.21449,0.43264 0.46799,0.83238 0.76048,1.19921c0.02373,0.03132 0.06509,0.04352 0.10202,0.0301c0.03693,-0.01343 0.06079,-0.04935 0.05886,-0.08859c-0.02316,-1.28209 -0.04144,-2.5526 -0.05485,-3.81154c-0.00487,-0.48505 0.06824,-0.85737 0.21937,-1.11695c0.28518,-0.48444 0.66725,-0.81898 1.276,-0.82447c1.1919,-0.00975 2.20588,0.20719 3.04192,0.6508c0.72391,0.3839 0.521,1.62882 0.52649,2.32531c0.00731,1.47343 -0.1499,2.91944 -0.09324,4.40384c0.00487,0.11822 0.04509,0.13223 0.12066,0.04204c0.17001,-0.20291 0.22486,-0.55939 0.32357,-0.73489c0.27056,-0.48383 0.64836,-0.93292 1.1334,-1.34729c1.28574,-1.09563 2.79147,-1.61419 4.51718,-1.55569c1.16875,0.04022 2.2199,0.40583 3.15344,1.09685c0.0548,0.03884 0.12984,0.02927 0.17184,-0.02194l0.44422,-0.54659c0.02992,-0.03712 0.06905,-0.06552 0.11334,-0.08227c0.8531,-0.33149 1.73485,-0.49724 2.64523,-0.49724c1.10965,-0.00183 1.92679,1.04566 2.21563,2.01453c0.01386,0.04489 0.05288,0.0774 0.09953,0.08293c0.04665,0.00553 0.09219,-0.01694 0.11618,-0.05734c0.42046,-0.72209 1.09867,-1.65623 1.8756,-1.91765c0.73489,-0.24862 1.78054,0.03472 2.52274,0.31991c0.08812,0.03376 0.18729,0.02112 0.26413,-0.03366c0.07683,-0.05478 0.12112,-0.14441 0.11794,-0.23872c-0.04936,-1.60322 -0.03473,-2.94868 2.07487,-2.74028c0.88357,0.08775 1.56849,0.1694 2.05475,0.24496c0.7495,0.11699 0.98533,1.53009 1.09685,2.1169c0.01771,0.09162 0.08936,0.16327 0.18098,0.18098c0.79338,0.15477 1.2114,0.66908 1.25406,1.54289c0.06032,1.25589 0.04935,2.86277 -1.40945,2.956c-0.21419,0.01488 -0.38239,0.1894 -0.38938,0.404l-0.09871,3.23387c-0.00534,0.15909 0.10397,0.29919 0.25958,0.33271c0.69832,0.15356 1.47891,0.4296 1.70926,1.21932zM230.44494,137.65272l-0.01645,0.87016c0,0.0646 -0.03168,0.10481 -0.09506,0.12066l-0.11517,0.03108c-0.3839,-0.62337 -0.63983,-1.35094 -1.09502,-1.92679c-0.14868,-0.1889 -0.273,-0.36805 -0.37293,-0.53746c-0.9634,-1.63064 -2.01637,-3.25031 -2.89019,-4.92666c-0.2669,-0.51369 -0.54477,-0.9963 -0.77876,-1.52645c-0.12553,-0.28639 -0.32662,-0.45457 -0.60327,-0.50454c-0.1755,-0.03169 -0.4686,0.02559 -0.8793,0.17184c-0.42534,0.1499 -0.86163,0.27543 -1.3089,0.37658c-0.06215,0.01341 -0.10846,0.04814 -0.13893,0.1042c-0.18281,0.33636 0.10237,0.76048 0.19926,1.09502c0.04631,0.16209 0.07617,0.35525 0.08958,0.5795c0.19012,3.31978 0.33515,6.64079 0.43509,9.96301c0.01096,0.3973 0.04387,0.79095 0.09871,1.18093c0.01605,0.11858 0.12292,0.20375 0.24313,0.19377l1.29976,-0.11151c0.20934,-0.0173 0.36929,-0.19485 0.36561,-0.40584l-0.14259,-8.29032c-0.00006,-0.03691 0.02396,-0.06956 0.05923,-0.08047c0.03527,-0.01092 0.07353,0.00244 0.09433,0.03295l5.69445,8.66324c0.06886,0.10519 0.18896,0.16524 0.31443,0.15722l1.07857,-0.06947c0.20218,-0.0131 0.36128,-0.17773 0.36745,-0.38024l0.40034,-12.66857c0.00389,-0.14286 -0.09791,-0.2672 -0.23948,-0.29249l-1.99443,-0.34368c-0.03073,-0.00564 -0.06236,0.00331 -0.08586,0.02432c-0.0235,0.02101 -0.03632,0.05177 -0.03479,0.08353c0.11822,2.79817 0.13528,5.60366 0.05118,8.41645zM255.16234,134.9033c0.01829,1.18337 0.02316,2.3698 0.01463,3.55926c-0.00975,1.34181 0.06824,2.23452 0.23399,2.67813c0.45336,1.21872 1.5039,1.79761 3.15161,1.73667c0.30224,-0.01096 0.45763,-0.16087 0.46615,-0.4497c0.00001,-0.02418 0.00434,-0.04832 0.0128,-0.0713c0.09871,-0.25592 0.11943,-0.51491 0.06215,-0.77693c-0.01637,-0.07212 -0.07697,-0.12533 -0.1499,-0.13162c-1.87926,-0.1499 -1.7129,-1.39482 -1.64709,-2.97428c0.04509,-1.04322 0.08958,-2.13581 0.13346,-3.27774c0.00843,-0.19498 0.1651,-0.35087 0.36012,-0.3583l1.02372,-0.03839c0.20499,-0.0069 0.36756,-0.17514 0.36744,-0.38025l0.00183,-1.28879c0,-0.03846 -0.01534,-0.0753 -0.04253,-0.10214c-0.02719,-0.02685 -0.06394,-0.04143 -0.10189,-0.04045l-1.26686,0.01646c-0.07222,0.00102 -0.14173,-0.02747 -0.19245,-0.07888c-0.05072,-0.05141 -0.07828,-0.12131 -0.07627,-0.19351l0.0457,-1.78237c0.00609,-0.25349 -0.11699,-0.39243 -0.36927,-0.4168l-1.87195,-0.17915c-0.03437,-0.00309 -0.06845,0.00824 -0.09386,0.0312c-0.02541,0.02297 -0.03978,0.05544 -0.03959,0.08945c-0.00366,0.77023 -0.0134,1.55082 -0.02925,2.34176c-0.01645,0.74951 -0.87566,0.51734 -1.36009,0.57768c-0.06581,0.00853 -0.10724,0.04448 -0.12431,0.10786c-0.13162,0.49845 -0.02011,0.92013 0.33453,1.26503c0.04554,0.0432 0.10616,0.06626 0.16818,0.06398l0.86286,-0.0457c0.03262,-0.00149 0.06446,0.01031 0.08823,0.03271c0.02377,0.02239 0.03745,0.05347 0.03791,0.08612zM248.91581,139.77327l1.95604,2.9761c0.06351,0.09518 0.17279,0.14948 0.28701,0.14259l2.20831,-0.12797c0.13528,-0.00853 0.18707,-0.07922 0.15538,-0.21206c-0.03778,-0.14868 -0.1176,-0.3126 -0.23948,-0.49175c-0.93476,-1.36496 -1.89816,-2.73967 -2.89019,-4.12413c-0.14219,-0.19936 -0.14727,-0.46528 -0.01279,-0.66908l2.47705,-3.74207c0.16575,-0.25105 0.09932,-0.39486 -0.19927,-0.43143l-1.25589,-0.15356c-0.13386,-0.0156 -0.26524,0.0434 -0.34185,0.15356l-1.88109,2.72018c-0.03226,0.04614 -0.08489,0.07378 -0.1412,0.07414c-0.05631,0.00037 -0.10929,-0.02659 -0.14215,-0.07231l-1.89206,-2.64523c-0.12027,-0.16854 -0.32439,-0.25652 -0.53014,-0.22851l-1.57397,0.21206c-0.04427,0.00621 -0.08296,0.03307 -0.10398,0.07221c-0.02102,0.03913 -0.02178,0.08574 -0.00205,0.12523c0.66725,1.34181 1.67451,2.68178 2.45145,3.87734c0.41314,0.63617 0.2541,0.92318 -0.13893,1.46978c-0.89819,1.25162 -1.76043,2.49776 -2.58672,3.73841c-0.04079,0.06157 -0.04628,0.14005 -0.01445,0.2067c0.03183,0.06665 0.09631,0.11172 0.16984,0.1187l1.68548,0.15538c0.11256,0.01026 0.22243,-0.04222 0.28701,-0.1371l2.02185,-3.00718c0.08287,-0.12309 0.16513,-0.12309 0.24679,0zM236.94558,141.97246c1.75678,1.27599 4.59761,1.20836 6.2374,-0.23765c0.63434,-0.55939 0.72941,-1.25772 0.07495,-1.83905c-0.06652,-0.05809 -0.16684,-0.05407 -0.22851,0.00914c-0.49236,0.50942 -1.07186,0.84944 -1.7385,1.02007c-1.83356,0.46981 -3.48797,-0.08592 -3.96145,-2.06389c-0.45153,-1.88109 0.21937,-4.08574 2.53371,-4.10768c0.97376,-0.00975 1.55264,0.49054 1.73667,1.50086c0.04631,0.25349 -0.05972,0.38877 -0.31809,0.40583l-3.47334,0.23582c-0.06408,0.00431 -0.11537,0.05482 -0.12066,0.11883c-0.039,0.41924 0.01645,0.8269 0.16635,1.22298c0.01778,0.04639 0.06184,0.07745 0.11151,0.07861l5.9321,0.05301c0.05537,0.00119 0.10375,-0.03721 0.11517,-0.0914c0.16088,-0.75316 -0.1042,-1.78054 -0.31626,-2.48252c-0.66542,-2.20648 -2.77319,-3.11322 -4.91569,-2.70738c-2.56479,0.48627 -3.82433,2.45145 -3.70917,5.07839c0.07434,1.68183 0.69893,2.95051 1.87377,3.80606zM252.97048,135.89594c-0.32723,0.29797 -1.15534,1.36191 -0.95973,1.86098c0.23765,0.60327 0.77876,1.16083 1.11512,1.79517c0.09871,0.18403 0.21022,0.38024 0.33453,0.58864c0.02556,0.04249 0.07577,0.06343 0.12394,0.0517c0.04817,-0.01173 0.08313,-0.05341 0.08629,-0.10288c0.07922,-1.1846 0.10116,-2.39721 0.06581,-3.63787c-0.01219,-0.42899 -0.22607,-0.63129 -0.64166,-0.60691c-0.0462,0.00243 -0.09006,0.02048 -0.12431,0.05118z" fill="#8d5e12"/><path d="M230.21827,138.67462c0.00609,0.08287 0.03473,0.15478 0.08592,0.21571c0.03242,0.03881 0.0861,0.05241 0.13309,0.0337c0.04699,-0.01872 0.07663,-0.06549 0.07349,-0.11596l-0.06582,-1.15534c0.08409,-2.81279 0.06703,-5.61828 -0.05118,-8.41645c-0.00152,-0.03176 0.01129,-0.06252 0.03479,-0.08353c0.0235,-0.02101 0.05512,-0.02997 0.08586,-0.02432l1.99443,0.34368c0.14156,0.02528 0.24337,0.14963 0.23948,0.29249l-0.40034,12.66857c-0.00617,0.20251 -0.16527,0.36714 -0.36745,0.38024l-1.07857,0.06947c-0.12547,0.00803 -0.24557,-0.05203 -0.31443,-0.15722l-5.69445,-8.66324c-0.0208,-0.0305 -0.05907,-0.04386 -0.09433,-0.03295c-0.03527,0.01092 -0.0593,0.04356 -0.05923,0.08047l0.14259,8.29032c0.00368,0.21098 -0.15628,0.38854 -0.36561,0.40584l-1.29976,0.11151c-0.12022,0.00998 -0.22709,-0.07519 -0.24313,-0.19377c-0.05485,-0.38999 -0.08774,-0.78363 -0.09871,-1.18093c-0.09994,-3.32221 -0.24496,-6.64323 -0.43509,-9.96301c-0.01341,-0.22425 -0.04327,-0.41741 -0.08958,-0.5795c-0.09689,-0.33454 -0.38207,-0.75866 -0.19926,-1.09502c0.03047,-0.05606 0.07678,-0.09079 0.13893,-0.1042c0.44727,-0.10115 0.88357,-0.22669 1.3089,-0.37658c0.41071,-0.14625 0.70381,-0.20352 0.8793,-0.17184c0.27664,0.04997 0.47774,0.21815 0.60327,0.50454c0.23399,0.53014 0.51186,1.01275 0.77876,1.52645c0.87382,1.67634 1.92679,3.29602 2.89019,4.92666c0.09994,0.1694 0.22425,0.34856 0.37293,0.53746c0.45519,0.57584 0.71112,1.30342 1.09502,1.92679z" fill="#fefbef"/><path d="M255.03621,134.78446l-0.86286,0.0457c-0.06203,0.00228 -0.12264,-0.02078 -0.16818,-0.06398c-0.35465,-0.3449 -0.46616,-0.76657 -0.33453,-1.26503c0.01706,-0.06337 0.0585,-0.09933 0.12431,-0.10786c0.48444,-0.06032 1.34364,0.17184 1.36009,-0.57768c0.01585,-0.79095 0.02559,-1.57154 0.02925,-2.34176c-0.00019,-0.03399 0.01418,-0.06648 0.03959,-0.08945c0.02541,-0.02297 0.05949,-0.0343 0.09386,-0.0312l1.87195,0.17915c0.25228,0.02438 0.37537,0.16331 0.36927,0.4168l-0.0457,1.78237c-0.002,0.07219 0.02555,0.14209 0.07627,0.19351c0.05072,0.05141 0.12023,0.0799 0.19245,0.07888l1.26686,-0.01646c0.03796,-0.00099 0.0747,0.0136 0.10189,0.04045c0.02719,0.02685 0.04253,0.06368 0.04253,0.10214l-0.00183,1.28879c0.00012,0.2051 -0.16245,0.37335 -0.36744,0.38025l-1.02372,0.03839c-0.19503,0.00743 -0.3517,0.16332 -0.36012,0.3583c-0.04388,1.14194 -0.08836,2.23452 -0.13346,3.27774c-0.06581,1.57946 -0.23216,2.82438 1.64709,2.97428c0.07293,0.00629 0.13354,0.0595 0.1499,0.13162c0.05728,0.26203 0.03656,0.52101 -0.06215,0.77693c-0.00846,0.02298 -0.01279,0.04711 -0.0128,0.0713c-0.00853,0.28884 -0.16392,0.43874 -0.46615,0.4497c-1.6477,0.06093 -2.69825,-0.51795 -3.15161,-1.73667c-0.16575,-0.44361 -0.24374,-1.33631 -0.23399,-2.67813c0.00853,-1.18947 0.00366,-2.37589 -0.01463,-3.55926c-0.00046,-0.03266 -0.01414,-0.06373 -0.03791,-0.08612c-0.02377,-0.02239 -0.0556,-0.0342 -0.08823,-0.03271z" fill="#fefbef"/></g><path d="M205.40947,165.94217c0.03289,0.06093 0.01827,0.10542 -0.04388,0.13345c-0.15843,0.07191 -0.30955,0.06094 -0.45336,-0.0329c-0.04997,-0.03169 -0.07313,-0.07617 -0.06947,-0.13345c0.00487,-0.12919 0.05241,-0.23949 0.14259,-0.33089c0.14747,-0.04753 0.23825,-0.0195 0.27238,0.08409z" fill="#d6a36d" stroke="none" stroke-width="1"/></g></g></svg>