<svg version="1.1" xmlns="http://www.w3.org/2000/svg" xmlns:xlink="http://www.w3.org/1999/xlink" width="97.28525" height="100.78072" viewBox="0,0,97.28525,100.78072"><g transform="translate(-191.35739,-128.05661)"><g data-paper-data="{&quot;isPaintingLayer&quot;:true}" fill-rule="nonzero" stroke-linecap="butt" stroke-linejoin="miter" stroke-miterlimit="10" stroke-dasharray="" stroke-dashoffset="0" style="mix-blend-mode: normal"><path d="M269.5173,143.58461l-1.5304,-0.96758c-0.04815,-0.03041 -0.08903,-0.07194 -0.1195,-0.12143c-0.09252,-0.14906 -0.23772,-0.30839 -0.4356,-0.47801c-0.65726,-0.56282 -1.45908,-0.2737 -1.46487,0.62835c-0.00129,0.06425 -0.02377,0.1195 -0.06746,0.16576c-0.20174,0.21073 -0.43046,0.32574 -0.68617,0.34501c0.8847,-0.99264 0.16383,-1.58051 -0.02506,-2.61556c-0.01293,-0.06865 0.01391,-0.13873 0.06939,-0.18118c0.40091,-0.31096 0.62193,-0.61614 0.66304,-0.91554c0.14906,-1.06524 -0.06425,-2.23071 -0.63992,-3.4964c-0.60651,-1.3338 -1.56252,-2.23521 -2.86805,-2.70422c-2.43438,-0.87314 -5.21955,-0.10023 -6.67092,2.09514c-0.03175,0.04809 -0.09152,0.06932 -0.14649,0.05204c-0.07196,-0.02442 -0.1073,-0.08738 -0.10601,-0.18889c0.00964,-0.70545 -0.10794,-1.7482 -0.81339,-2.10478c-1.05239,-0.53005 -1.99106,0.20817 -3.06273,0.02313c-0.70545,-0.12143 -2.66374,-0.50885 -3.16874,-0.19275c-0.56667,0.35465 -0.60137,1.5092 -0.57245,2.10285c0.03726,0.78383 0.05011,1.53233 0.03855,2.24549c-0.009,0.60394 -0.06746,0.611 -0.1754,0.0212c-0.08609,-0.46516 -0.26213,-0.9663 -0.52812,-1.50342c-1.57859,-3.18994 -5.8479,-3.61012 -8.63693,-1.98913c-0.58595,0.34116 -0.98878,0.82688 -1.37813,1.36849c-0.03153,0.04304 -0.08397,0.06554 -0.13688,0.05872c-0.05292,-0.00682 -0.09795,-0.04186 -0.11754,-0.09149c-0.16576,-0.41826 -0.372,-0.76327 -0.75556,-1.03504c-1.76169,-1.25028 -3.67759,-1.55738 -5.74767,-0.92132c-2.13691,0.6579 -3.44565,2.05338 -3.92623,4.18643c-0.01144,0.0493 -0.05102,0.08713 -0.10079,0.09634c-0.04977,0.0092 -0.10026,-0.01198 -0.12857,-0.05393c-0.37521,-0.55896 -0.85322,-1.01063 -1.43403,-1.355c-0.06041,-0.03522 -0.09447,-0.10266 -0.08698,-0.17219c0.00749,-0.06953 0.05515,-0.12815 0.12167,-0.1497c0.42019,-0.13878 0.96373,-0.15227 1.09479,-0.70738c0.19531,-0.82495 0.35272,-1.73278 0.47223,-2.72349c0.09445,-0.7864 -0.20431,-1.42246 -0.8076,-1.85614c-1.47258,-1.05625 -3.16874,-1.55995 -5.08848,-1.51113c-2.41125,0.06168 -4.70492,1.20851 -5.20798,3.71035c-0.63992,3.17837 0.83073,4.72612 3.52532,5.69178c0.66947,0.24157 1.34022,0.47737 2.01226,0.70738c0.55896,0.19275 0.93482,0.4144 1.30103,0.82302c0.46259,0.51656 -0.18504,1.08323 -0.69388,1.11792c-0.73051,0.05204 -1.58822,0.02698 -2.24934,-0.31225c-1.23164,-0.63606 -1.22393,-2.51918 -2.97792,-1.91204c-0.26342,0.09123 -0.65662,0.39063 -1.1796,0.89819c-0.82688,0.80182 -0.13492,2.24356 0.48379,2.9413l-0.0983,0.00964c-0.02184,0.00129 -0.02891,0.01221 -0.0212,0.03277l0.05011,0.13107c0.00444,0.0135 -0.00063,0.0287 -0.0122,0.03656c-0.01156,0.00786 -0.02652,0.00629 -0.03599,-0.0038l-0.34501,-0.34887c-0.03726,-0.03855 -0.08288,-0.0559 -0.13685,-0.05204c-0.08866,0.00514 -0.16383,-0.03919 -0.22551,-0.13299c-0.19531,-0.2994 -0.38613,-0.60137 -0.57245,-0.9059c-0.09123,-0.14777 -0.26663,-0.23129 -0.5262,-0.25057c0.20046,-1.29782 0.92261,-2.33479 2.16646,-3.11091c0.07066,-0.04467 0.09502,-0.13621 0.0559,-0.21009c-0.23001,-0.4446 -0.53391,-0.83073 -0.91169,-1.1584c-0.04497,-0.03855 -0.07581,-0.08674 -0.09252,-0.14456c-0.1966,-0.67075 -0.50499,-1.31452 -0.52234,-1.99492c-0.05782,-2.18766 0.38742,-3.66217 2.06045,-5.11739c1.33958,-1.16418 3.36726,-1.41282 5.11547,-1.30296c1.66018,0.10537 3.13404,0.58209 4.42158,1.43017c1.55931,1.02926 1.57859,2.40932 1.29525,4.06308c-0.01159,0.07069 0.02002,0.14149 0.08038,0.18006c0.06037,0.03857 0.1379,0.03749 0.19717,-0.00274c0.40477,-0.28141 0.75171,-0.64184 1.15647,-0.85386c1.94288,-1.0177 3.96478,-1.19566 6.0657,-0.53391c0.53391,0.16769 1.1372,0.69581 1.66918,0.72858c0.70545,0.04369 1.49378,-0.10986 2.36499,-0.46066c1.96215,-0.79026 4.00397,-0.81082 6.12545,-0.06168c0.57824,0.20431 1.05046,0.4491 1.48607,0.85386c0.11383,0.106 0.27227,0.1497 0.42434,0.11706c0.15208,-0.03264 0.27862,-0.13752 0.33893,-0.28089c0.35851,-0.85065 0.97465,-1.29975 1.84843,-1.34729c0.57631,-0.03277 1.50727,0.07324 2.20886,0.21588c1.75591,0.35851 3.39039,-0.96758 4.809,0.91169c0.13362,0.17658 0.38069,0.21958 0.56474,0.0983c1.51369,-0.99842 3.14561,-1.35243 4.89574,-1.06203c0.58595,0.09637 1.31838,0.4279 2.00263,0.611c0.28269,0.07453 0.52427,0.19853 0.72472,0.372c0.53583,0.46066 1.09094,0.8211 1.4109,1.48221c0.29297,0.60329 0.69003,1.22972 0.87506,1.82337c0.41248,1.33123 0.44203,2.68173 0.08866,4.05151c-0.23129,0.89241 0.31032,0.89819 0.82302,1.29332c0.75042,0.58081 1.45973,1.20595 2.12791,1.87541z" fill="#d2924a" stroke="none" stroke-width="1"/><path d="M281.01108,204.04467c-2.75347,4.54953 -5.7803,8.30989 -9.0805,11.28105c-9.38109,8.45336 -20.44073,12.62315 -33.17892,12.50935c-12.97321,-0.11504 -25.29331,-6.13779 -34.16601,-15.50774c-1.00441,-1.06131 -2.5407,-3.07136 -4.6089,-6.03017" fill="none" stroke="#d2924a" stroke-width="2"/><path d="M263.84997,138.89324c4.54953,2.75347 8.30989,5.7803 11.28105,9.0805c8.45336,9.38109 12.62315,20.44073 12.50935,33.17892c-0.11504,12.97321 -6.13779,25.29331 -15.50774,34.16601c-1.06131,1.00441 -3.07136,2.5407 -6.03017,4.6089" fill="none" stroke="#d2924a" stroke-width="2"/><path d="M213.84598,140.12154c1.09842,-1.02173 2.32301,-1.82575 3.67376,-2.41207c1.63278,-0.70878 46.49106,-1.47197 45.09083,-0.18553c-0.12019,0.10943 -0.16779,0.27733 -0.12308,0.43418c0.0447,0.15685 0.1741,0.27596 0.3346,0.30799c0.40572,0.07669 0.74836,0.28574 1.02791,0.62714" fill="none" stroke="#d2924a" stroke-width="2"/><path d="M213.71611,219.91645c-2.70894,-2.01377 -4.53097,-3.44617 -5.46612,-4.29719c-10.35705,-9.42562 -16.16828,-22.31347 -15.88254,-36.33315c0.19297,-9.51715 3.00951,-18.26121 8.44966,-26.23216c2.6174,-3.82962 5.74196,-7.1892 9.37367,-10.07873c1.21964,-0.96978 2.43804,-1.921 3.65521,-2.85367" fill="none" stroke="#d2924a" stroke-width="2"/><path d="M263.84997,138.89324c-0.99204,-0.60611 -1.73792,-0.79784 -2.23766,-0.57519c-1.00441,0.45025 -1.34952,1.15161 -1.03533,2.10407c0.03825,0.11979 0.11704,0.22223 0.22266,0.28945c1.5932,1.02667 3.1864,2.05211 4.7796,3.07631c0.63827,0.41067 1.2716,0.90916 1.89997,1.49548c0.70506,0.65807 1.3186,1.18995 1.84059,1.59568c1.15284,0.89803 2.10901,1.80843 2.86851,2.73121c0.03866,0.04843 0.06077,0.10695 0.06309,0.16699c0,0.07174 0.02103,0.13359 0.06309,0.18554c1.3656,1.76638 2.81284,3.45853 4.34172,5.07647c0.81639,0.86464 1.20604,1.96305 1.83688,2.97241c0.5121,0.82133 0.92401,1.59073 1.23572,2.30817c0.4453,1.0242 0.9438,2.02366 1.49548,2.99839c0.32161,0.56653 0.55416,1.1714 0.69765,1.81462c0.14101,0.64075 0.30677,1.27655 0.49725,1.90739c0.30924,1.0341 0.55292,1.98161 0.73104,2.84253c0.29687,1.44353 0.77187,2.86851 0.89803,4.28234c0.31666,3.61934 0.36738,7.24486 0.15214,10.87657c-0.03958,0.66549 -0.30924,2.11891 -0.80897,4.36028c-0.7768,3.4808 -1.80225,6.52248 -3.07631,9.12504c-0.32161,0.65559 -0.63455,1.36931 -0.93885,2.14117c-0.35872,0.90546 -0.70878,1.60187 -1.05018,2.08922c-1.11326,1.57588 -2.23642,3.14558 -3.36948,4.70909c-0.34635,0.47746 -0.76196,0.95741 -1.24686,1.43982c-0.44283,0.44036 -0.877,0.88814 -1.30251,1.34333c-0.09648,0.1039 -0.21276,0.17194 -0.34882,0.2041l-0.79042,0.18554c-0.08411,0.01732 -0.12617,-0.01608 -0.12617,-0.1002v-0.1707c0,-0.14843 -0.07545,-0.22636 -0.22636,-0.23378c-0.4651,-0.02227 -1.45466,-0.14596 -2.9687,-0.37109c-1.34581,-0.20039 -2.73121,0.01979 -4.15618,0.66054" fill="none" stroke="#d8ae61" stroke-width="2"/><path d="M259.66785,213.90854c0.30058,-0.57148 0.65682,-1.16893 1.22459,-1.54001c0.95988,-0.63085 1.92595,-1.27902 2.8982,-1.9445" fill="none" stroke="#d8bf69" stroke-width="2"/><path d="M259.30415,216.49502l0.49354,2.57534c0.02474,0.13606 0.00124,0.26224 -0.07051,0.37851l-0.91659,1.48064c-0.06432,0.1039 -0.15338,0.17565 -0.26718,0.21523c-0.48736,0.16823 -0.95122,0.37604 -1.39158,0.62343c-0.55663,0.3043 -1.14666,0.32656 -1.71071,0.616c-0.50468,0.25977 -0.91906,0.41809 -1.24314,0.47499c-1.13182,0.2041 -2.20797,0.46386 -3.28041,0.88689c-0.36862,0.14349 -0.89556,0.27336 -1.58083,0.38965c-5.52425,0.93515 -10.73308,1.091 -15.62648,0.46757c-1.98903,-0.25481 -4.91814,-0.93515 -8.78735,-2.04099c-0.78671,-0.22513 -1.43116,-0.46386 -1.93337,-0.7162c-0.8436,-0.42056 -1.399,-0.83 -1.66618,-1.2283c-0.89309,-1.3186 -2.062,-2.31682 -3.50678,-2.99467c-0.76691,-0.36119 -1.48064,-0.80526 -2.14117,-1.3322c-1.86533,-1.48435 -3.70345,-3.00334 -5.51436,-4.55695c-0.80154,-0.68775 -1.63031,-1.55486 -2.48628,-2.60133c-0.65312,-0.7966 -1.43611,-1.71442 -2.34898,-2.75347c-1.68968,-1.92471 -3.15672,-4.21432 -4.4011,-6.86882c-0.53807,-1.15037 -1.12069,-2.14118 -1.48807,-3.19878c-0.43046,-1.24686 -1.01678,-2.50855 -1.36189,-3.65521c-1.0242,-3.39174 -1.57094,-7.10385 -1.64021,-11.13633c-0.09896,-5.86813 0.7298,-11.37382 2.48628,-16.5171c0.29192,-0.85103 0.69641,-1.78122 1.21346,-2.79058c0.4651,-0.90051 0.92895,-1.80225 1.39158,-2.70523c0.45272,-0.87947 0.58632,-2.13746 1.69216,-2.99467c0.09648,-0.07421 0.16575,-0.16946 0.20781,-0.28573c0.16823,-0.48736 0.42181,-0.92401 0.76073,-1.30994c0.79907,-0.90298 1.54496,-1.85172 2.23766,-2.84624c0.34882,-0.49725 0.93143,-0.62714 1.30623,-1.14667c1.06378,-1.4794 2.4232,-2.97365 4.07825,-4.48274c0.67786,-0.616 1.31613,-1.45837 1.91481,-2.5271c0.05937,-0.10885 0.08164,-0.22266 0.06679,-0.3414c-0.13111,-1.00441 0.23873,-1.76638 1.10956,-2.2859c1.28396,-0.76691 2.58276,-1.79236 3.89641,-3.07631c0.11713,-0.11607 0.13577,-0.29878 0.04452,-0.43613c-0.09126,-0.13734 -0.26693,-0.19093 -0.41931,-0.12792c-0.55663,0.23997 -1.13305,0.5257 -1.72927,0.85721c-0.70136,0.38965 -1.71443,1.33592 -2.84625,1.61795" fill="none" stroke="#d2924a" stroke-width="2"/><path d="M207.70449,161.78933l-2.05953,2.47887c-0.07063,0.08481 -0.17536,0.13377 -0.28574,0.13359h-1.07615c-0.13026,0.00034 -0.24662,-0.0832 -0.28945,-0.20781c-0.61106,-1.80843 -0.16328,-3.35711 1.34333,-4.64601c1.06873,-0.90916 2.0113,0.2375 2.39722,1.30993" fill="none" stroke="#dbb960" stroke-width="2"/><path d="M207.73418,160.8579l0.08906,-1.03904c0.0099,-0.11627 0.06927,-0.19915 0.17812,-0.24863c0.90298,-0.40324 1.8542,-0.63456 2.85367,-0.69393c0.10885,-0.00495 0.20905,-0.03958 0.30058,-0.1039c0.37604,-0.26471 0.76815,-0.49355 1.17635,-0.68651c1.11698,-0.52323 1.99274,-1.1281 3.32494,-1.22088c0.12369,-0.00742 0.2276,-0.05814 0.31172,-0.15215c0.71248,-0.80154 1.57588,-1.3186 2.59019,-1.55114c0.66549,-0.15338 1.14542,-0.33769 1.43982,-0.55292c1.08358,-0.79784 1.41384,-1.55486 2.17457,-2.59391c0.08164,-0.11132 0.11133,-0.23872 0.08906,-0.38222c-0.01979,-0.12617 -0.00619,-0.24739 0.04082,-0.36367c0.71991,-1.75648 0.82505,-3.53894 0.31542,-5.34737c-0.03711,-0.13359 -0.00866,-0.24987 0.08535,-0.34883l0.97968,-1.03533c0.08658,-0.09153 0.17193,-0.09278 0.25605,-0.00371c0.03711,0.03711 0.07793,0.07051 0.12246,0.10019c0.03711,0.02227 0.0668,0.01485 0.08906,-0.02226c0.57148,-1.06131 1.31735,-0.90173 1.99645,-0.04453c0.7867,0.99204 1.82699,1.45837 3.12084,1.399c0.12864,-0.00495 0.24245,-0.04824 0.34141,-0.12988c0.88566,-0.72733 1.62907,-1.58331 2.23023,-2.56792c0.06282,-0.10445 0.17466,-0.16954 0.2965,-0.17255c0.12184,-0.003 0.23677,0.05648 0.30466,0.1577c0.45272,0.67166 1.06873,0.97225 1.92223,0.9908c1.79359,0.04206 3.58594,0.04701 5.37706,0.01485c0.97967,-0.01856 1.47322,-0.04453 2.33785,0.56776c1.07862,0.76196 2.2859,0.97349 3.62181,0.63456c0.98338,-0.24863 1.80348,-0.84608 2.64585,-1.45466c0.15001,-0.10865 0.35905,-0.08807 0.48983,0.04824c0.53437,0.56158 1.10461,1.12811 1.71071,1.69958c1.20603,1.13182 3.20248,0.33027 4.21184,-0.61229c0.58632,-0.54179 0.81269,-0.47499 1.49177,-0.21894c1.23943,0.46756 2.22033,0.98833 2.94272,1.56228c0.04701,0.03711 0.07174,0.02598 0.07422,-0.0334c0.00248,-0.03711 0.00371,-0.07299 0.00371,-0.10762c0,-0.03711 0.01732,-0.047 0.05196,-0.02969c1.89254,0.87577 3.54636,2.04593 4.96144,3.51048c0.99204,1.02668 1.74906,1.75401 2.27105,2.18199c1.98903,1.63773 3.23711,2.77079 3.74427,3.39916c1.89254,2.36012 3.5142,4.88969 4.86495,7.58873c0.21771,0.43293 0.40944,1.05636 0.57519,1.87028c0.1608,0.7768 0.43788,1.62784 0.83123,2.55308c1.091,2.5506 1.79483,5.335 2.11149,8.35317c0.05567,0.53437 -0.08905,0.93515 -0.07793,1.35076c0.05195,2.11273 0.07051,4.22421 0.05567,6.33446c-0.00248,0.49725 -0.07422,1.17882 -0.21524,2.04469c-0.08659,0.53437 -0.17565,1.21469 -0.26719,2.04098c-0.20534,1.85296 -0.68775,3.71335 -1.44724,5.58115c-0.56653,1.38787 -1.37549,3.11466 -2.42691,5.18038c-1.13553,2.22652 -2.48753,4.32069 -4.05598,6.28251c-0.01732,0.02227 -0.35006,0.49478 -0.99822,1.41755c-0.67291,0.95988 -1.54125,1.56846 -2.60503,1.82575c-1.80101,0.43294 -3.15177,1.29386 -4.05228,2.58276c-0.07093,0.10178 -0.17993,0.16907 -0.30058,0.18554c-0.3884,0.05195 -0.65929,0.2412 -0.81268,0.56776c-0.04206,0.09153 -0.10638,0.16451 -0.19297,0.21894l-1.9111,1.1949c-0.09153,0.05443 -0.18926,0.07422 -0.29316,0.05937l-0.25605,-0.0371c-0.12122,-0.01732 -0.22018,0.02103 -0.29687,0.11503c-0.29934,0.34882 -0.66424,0.56776 -1.09471,0.65682c-0.12369,0.02721 -0.24121,0.06927 -0.35253,0.12617c-0.42799,0.2276 -0.74836,0.55416 -0.96112,0.97967c-0.0569,0.11627 -0.14225,0.20286 -0.25604,0.25976c-1.20727,0.59869 -2.42444,1.17016 -3.6515,1.71442c-0.69269,0.30677 -1.48929,0.54921 -2.3898,0.72733c-0.75207,0.15091 -1.53506,0.33769 -2.34898,0.56034c-0.12864,0.03463 -0.261,0.05567 -0.39707,0.06309c-1.23201,0.07669 -2.39598,0.12494 -3.49193,0.14473c-0.06185,0.00248 -0.45149,-0.0334 -1.16893,-0.10762c-0.67909,-0.07051 -1.45095,0.24863 -2.0818,-0.08164c-0.10937,-0.05838 -0.23075,-0.08777 -0.35253,-0.08535c-1.53877,0.03463 -3.07384,0.09896 -4.6052,0.19297c-1.29386,0.07917 -2.46526,0.04453 -3.5142,-0.1039c-0.77434,-0.11132 -1.54992,-0.23625 -2.32672,-0.3748c-0.75949,-0.13606 -1.49919,-0.3748 -2.2191,-0.7162c-1.97419,-0.93762 -3.92363,-1.92842 -5.84834,-2.97241c-0.33893,-0.18307 -0.59869,-0.35872 -0.77928,-0.52694c-0.86834,-0.80526 -1.79978,-1.30623 -2.88335,-1.77009c-0.51705,-0.22018 -1.00194,-0.52323 -1.45466,-0.90916c-0.70012,-0.59869 -1.65381,-1.29387 -2.86109,-2.08552c-0.88566,-0.58137 -1.71318,-1.42374 -2.48258,-2.5271c-0.41809,-0.59621 -0.89927,-1.17016 -1.44353,-1.72185c-1.12563,-1.13553 -2.01005,-2.4467 -2.65328,-3.93352c-0.03216,-0.07669 -0.08906,-0.11379 -0.1707,-0.11132c-0.04206,0 -0.08164,0 -0.11875,0c-0.04205,0 -0.07299,-0.01979 -0.09278,-0.05938c-0.78175,-1.39529 -1.57712,-2.78316 -2.38608,-4.1636c-0.48736,-0.82629 -0.84608,-1.67731 -1.07616,-2.55308c-0.50962,-1.91481 -0.97967,-3.83952 -1.41013,-5.77412c-0.16328,-0.73475 -0.14843,-1.93337 -0.43046,-2.89448c-0.13606,-0.46262 -0.21276,-0.84237 -0.23008,-1.13924c-0.27831,-4.197 -0.09649,-8.49789 1.00564,-12.56872c0.522,-1.92471 0.96731,-3.24083 1.33592,-3.94837c0.28945,-0.55663 0.77433,-1.06007 1.45466,-1.51032c0.616,-0.4082 1.0576,-0.78918 1.32477,-1.14295c0.62343,-0.83123 1.15284,-1.68844 1.58826,-2.57164" fill="none" stroke="#cc9e45" stroke-width="2"/><path d="M207.70449,161.78933l0.02968,-0.93143" fill="none" stroke="#d7b255" stroke-width="2"/><path d="M264.51052,210.49455c1.44476,0.09895 2.82645,0.45396 4.14504,1.06502c0.11627,0.05443 0.19049,0.14348 0.22266,0.26718c0.15833,0.62838 0.00371,1.24067 -0.46386,1.83689" fill="none" stroke="#dcbe82" stroke-width="2"/><path d="M263.79062,210.42404l2.32672,0.08163c0.01237,0 0.01732,0.00866 0.01484,0.02598c0,0.00248 0,0.00494 0,0.00742c0,0.00495 -0.00247,0.00743 -0.00742,0.00743l-1.61423,-0.05195" fill="none" stroke="#dfc97b" stroke-width="2"/><path d="M264.80368,211.09199l-0.61971,0.16328c-0.13606,0.03711 -0.24863,0.00124 -0.33769,-0.10762c-0.08906,-0.1039 -0.21399,-0.07916 -0.3748,0.07422c-0.19792,0.19049 -0.23626,0.16328 -0.11504,-0.08164c0.2276,-0.46756 0.61229,-0.6828 1.15409,-0.64569" fill="none" stroke="#dcce8a" stroke-width="2"/><path d="M264.80368,211.09199c0.81887,0.38098 1.64763,0.71497 2.48629,1.00194c0.50962,0.1707 0.82876,0.40696 0.95741,0.70878c0.16823,0.38593 0.16328,0.83371 -0.01484,1.34334" fill="none" stroke="#dcd289" stroke-width="2"/><path d="M264.80368,211.09199c0.94998,-0.15833 1.76885,0.04453 2.4566,0.60858c0.10143,0.08164 0.21647,0.13359 0.34511,0.15586c0.81639,0.13606 1.08604,0.73847 0.80896,1.8072" fill="none" stroke="#d8c790" stroke-width="2"/><path d="M263.84997,138.89324c-0.99204,-0.60611 -1.73793,-0.79784 -2.23766,-0.57518c-1.00441,0.45025 -1.34952,1.15161 -1.03533,2.10407c0.03825,0.11979 0.11704,0.22222 0.22266,0.28945c1.5932,1.02667 3.1864,2.05211 4.7796,3.07631c0.63827,0.41067 1.2716,0.90916 1.89997,1.49548c0.70506,0.65807 1.3186,1.18995 1.84059,1.59568c1.15284,0.89803 2.10901,1.80843 2.8685,2.7312c0.03866,0.04843 0.06077,0.10695 0.06309,0.16699c0,0.07174 0.02103,0.13359 0.06309,0.18554c1.3656,1.76638 2.81284,3.45853 4.34172,5.07647c0.81639,0.86463 1.20604,1.96305 1.83689,2.97241c0.5121,0.82133 0.924,1.59073 1.23572,2.30817c0.4453,1.0242 0.9438,2.02366 1.49549,2.99839c0.32161,0.56653 0.55416,1.1714 0.69764,1.81462c0.14101,0.64075 0.30676,1.27655 0.49725,1.90739c0.30924,1.03409 0.55292,1.98161 0.73105,2.84253c0.29687,1.44353 0.77186,2.86851 0.89803,4.28234c0.31666,3.61934 0.36738,7.24486 0.15214,10.87657c-0.03958,0.66549 -0.30925,2.11891 -0.80897,4.36027c-0.7768,3.4808 -1.80225,6.52248 -3.07631,9.12504c-0.32161,0.65559 -0.63456,1.36931 -0.93885,2.14117c-0.35872,0.90546 -0.70878,1.60187 -1.05018,2.08922c-1.11326,1.57588 -2.23642,3.14558 -3.36948,4.70909c-0.34635,0.47746 -0.76196,0.95741 -1.24686,1.43982c-0.44283,0.44036 -0.87701,0.88814 -1.30252,1.34333c-0.09648,0.1039 -0.21276,0.17194 -0.34882,0.2041l-0.79042,0.18554c-0.08411,0.01732 -0.12616,-0.01608 -0.12616,-0.1002v-0.1707c0,-0.14843 -0.07546,-0.22636 -0.22636,-0.23378c-0.4651,-0.02227 -1.45466,-0.14596 -2.9687,-0.37109c-1.34581,-0.20039 -2.73121,0.01979 -4.15618,0.66054c-0.97225,0.66548 -1.93832,1.31365 -2.8982,1.9445c-0.56776,0.37109 -0.924,0.96853 -1.22459,1.54001c-0.27214,0.25481 -0.3748,0.56405 -0.308,0.92772l-0.05567,1.65876l0.49354,2.57534c0.02474,0.13606 0.00124,0.26224 -0.07051,0.37851l-0.91659,1.48064c-0.06432,0.1039 -0.15338,0.17565 -0.26718,0.21523c-0.48736,0.16823 -0.95122,0.37604 -1.39158,0.62343c-0.55663,0.3043 -1.14667,0.32656 -1.71071,0.616c-0.50468,0.25977 -0.91905,0.41809 -1.24314,0.47499c-1.13182,0.2041 -2.20797,0.46386 -3.28041,0.88689c-0.36861,0.14349 -0.89556,0.27336 -1.58083,0.38965c-5.52425,0.93515 -10.73308,1.091 -15.62648,0.46757c-1.98903,-0.25481 -4.91814,-0.93515 -8.78735,-2.04099c-0.78671,-0.22513 -1.43116,-0.46386 -1.93337,-0.7162c-0.8436,-0.42056 -1.399,-0.83 -1.66618,-1.2283c-0.89309,-1.3186 -2.062,-2.31682 -3.50678,-2.99467c-0.76691,-0.36119 -1.48064,-0.80526 -2.14117,-1.3322c-1.86533,-1.48435 -3.70345,-3.00334 -5.51436,-4.55695c-0.80154,-0.68775 -1.63031,-1.55486 -2.48628,-2.60133c-0.65312,-0.7966 -1.43611,-1.71442 -2.34898,-2.75347c-1.68968,-1.92471 -3.15672,-4.21432 -4.4011,-6.86882c-0.53807,-1.15037 -1.12069,-2.14118 -1.48807,-3.19878c-0.43046,-1.24686 -1.01678,-2.50855 -1.36189,-3.65521c-1.0242,-3.39174 -1.57094,-7.10385 -1.64021,-11.13633c-0.09896,-5.86813 0.7298,-11.37382 2.48628,-16.5171c0.29192,-0.85103 0.69641,-1.78122 1.21346,-2.79058c0.4651,-0.90051 0.92895,-1.80225 1.39158,-2.70523c0.45272,-0.87947 0.58632,-2.13746 1.69216,-2.99467c0.09648,-0.07421 0.16575,-0.16946 0.20781,-0.28573c0.16823,-0.48736 0.42181,-0.92401 0.76073,-1.30994c0.79907,-0.90298 1.54496,-1.85172 2.23766,-2.84624c0.34882,-0.49725 0.93143,-0.62714 1.30623,-1.14667c1.06378,-1.4794 2.4232,-2.97365 4.07825,-4.48274c0.67786,-0.616 1.31613,-1.45837 1.91481,-2.5271c0.05937,-0.10885 0.08164,-0.22266 0.06679,-0.3414c-0.13111,-1.00441 0.23873,-1.76638 1.10956,-2.2859c1.28396,-0.76691 2.58276,-1.79236 3.89641,-3.07631c0.11713,-0.11607 0.13577,-0.29878 0.04452,-0.43613c-0.09126,-0.13734 -0.26693,-0.19093 -0.41931,-0.12792c-0.55663,0.23997 -1.13305,0.5257 -1.72927,0.85721c-0.70136,0.38965 -1.71443,1.33592 -2.84625,1.61795c1.09842,-1.02173 2.32301,-1.82575 3.67376,-2.41207c1.63278,-0.70878 46.49106,-1.47197 45.09083,-0.18553c-0.12019,0.10943 -0.16779,0.27733 -0.12308,0.43418c0.0447,0.15685 0.17409,0.27596 0.33459,0.30799c0.40572,0.07669 0.74836,0.28574 1.02791,0.62713zM207.73418,160.8579c-0.38593,-1.07244 -1.32849,-2.2191 -2.39723,-1.30993c-1.50661,1.28892 -1.95439,2.83758 -1.34333,4.64601c0.04283,0.12461 0.15919,0.20815 0.28945,0.20781h1.07615c0.11038,0.00018 0.2151,-0.04878 0.28574,-0.13359l2.05953,-2.47886c-0.43541,0.88319 -0.96483,1.7404 -1.58826,2.57164c-0.26719,0.35377 -0.70878,0.73475 -1.32477,1.14294c-0.68032,0.45025 -1.16521,0.95369 -1.45466,1.51033c-0.36861,0.70754 -0.81392,2.02367 -1.33592,3.94837c-1.10213,4.07082 -1.28396,8.37173 -1.00564,12.56872c0.01732,0.29687 0.094,0.67661 0.23008,1.13924c0.28203,0.96112 0.26718,2.15973 0.43046,2.89448c0.43046,1.9346 0.90051,3.85931 1.41013,5.77412c0.23008,0.87577 0.5888,1.72679 1.07616,2.55308c0.80896,1.38044 1.60433,2.76831 2.38608,4.1636c0.01979,0.03958 0.05072,0.05938 0.09278,0.05938c0.03711,0 0.07669,0 0.11874,0c0.08164,-0.00248 0.13854,0.03463 0.1707,0.11132c0.64322,1.48682 1.52764,2.798 2.65328,3.93352c0.54426,0.55169 1.02544,1.12563 1.44353,1.72185c0.76938,1.10337 1.59691,1.94573 2.48257,2.5271c1.20727,0.79165 2.16097,1.48683 2.86109,2.08552c0.45272,0.38593 0.93762,0.68898 1.45466,0.90916c1.08358,0.46386 2.015,0.96483 2.88335,1.77009c0.1806,0.16823 0.44035,0.34387 0.77928,0.52694c1.92471,1.04399 3.87415,2.03479 5.84834,2.97241c0.71991,0.3414 1.4596,0.58014 2.2191,0.7162c0.7768,0.13854 1.55239,0.26347 2.32672,0.3748c1.04894,0.14843 2.22034,0.18307 3.5142,0.1039c1.53135,-0.094 3.06642,-0.15833 4.6052,-0.19297c0.12178,-0.00242 0.24316,0.02697 0.35253,0.08536c0.63085,0.33027 1.40271,0.01113 2.0818,0.08164c0.71743,0.07422 1.10708,0.1101 1.16893,0.10762c1.09595,-0.01979 2.25992,-0.06803 3.49193,-0.14473c0.13606,-0.00742 0.26842,-0.02845 0.39707,-0.06309c0.81392,-0.22266 1.59691,-0.40943 2.34898,-0.56034c0.90051,-0.17812 1.69711,-0.42056 2.3898,-0.72733c1.22706,-0.54426 2.44423,-1.11573 3.6515,-1.71442c0.1138,-0.0569 0.19915,-0.14349 0.25605,-0.25976c0.21276,-0.42551 0.53313,-0.75207 0.96111,-0.97967c0.11133,-0.0569 0.22884,-0.09896 0.35253,-0.12617c0.43046,-0.08906 0.79536,-0.308 1.09471,-0.65682c0.07669,-0.094 0.17565,-0.13235 0.29687,-0.11503l0.25605,0.0371c0.1039,0.01485 0.20163,-0.00494 0.29315,-0.05937l1.9111,-1.1949c0.08658,-0.05443 0.15091,-0.12741 0.19297,-0.21894c0.15338,-0.32656 0.42428,-0.51581 0.81268,-0.56776c0.12065,-0.01647 0.22965,-0.08376 0.30058,-0.18554c0.90051,-1.28891 2.25126,-2.14983 4.05228,-2.58276c1.06378,-0.25729 1.93213,-0.86587 2.60503,-1.82575c0.64817,-0.92278 0.98091,-1.39529 0.99822,-1.41755c1.56846,-1.96182 2.92046,-4.05598 4.05598,-6.28251c1.05142,-2.06572 1.86038,-3.79252 2.42691,-5.18038c0.75949,-1.8678 1.24191,-3.72819 1.44724,-5.58115c0.09153,-0.82628 0.1806,-1.50661 0.26719,-2.04098c0.14101,-0.86587 0.21276,-1.54743 0.21524,-2.04469c0.01484,-2.11025 -0.00371,-4.22174 -0.05567,-6.33446c-0.01113,-0.41561 0.13359,-0.81639 0.07793,-1.35076c-0.31666,-3.01818 -1.02049,-5.80257 -2.11149,-8.35317c-0.39335,-0.92525 -0.67043,-1.77627 -0.83124,-2.55308c-0.16575,-0.81391 -0.35748,-1.43734 -0.57518,-1.87028c-1.35076,-2.69905 -2.97241,-5.22862 -4.86495,-7.58873c-0.50715,-0.62837 -1.75524,-1.76143 -3.74427,-3.39916c-0.522,-0.42799 -1.27902,-1.15532 -2.27105,-2.18199c-1.41508,-1.46455 -3.06889,-2.63472 -4.96144,-3.51049c-0.03463,-0.01731 -0.05196,-0.00742 -0.05196,0.02969c0,0.03464 -0.00124,0.07051 -0.00371,0.10762c-0.00248,0.05937 -0.02721,0.07051 -0.07422,0.0334c-0.72239,-0.57395 -1.70329,-1.09471 -2.94272,-1.56228c-0.67909,-0.25605 -0.90546,-0.32284 -1.49177,0.21894c-1.00936,0.94256 -3.00581,1.74411 -4.21184,0.61229c-0.60611,-0.57148 -1.17635,-1.138 -1.71071,-1.69958c-0.13078,-0.1363 -0.33982,-0.15689 -0.48983,-0.04825c-0.84237,0.60858 -1.66247,1.20604 -2.64585,1.45466c-1.33591,0.33893 -2.54318,0.1274 -3.62181,-0.63456c-0.86464,-0.61229 -1.35818,-0.58632 -2.33785,-0.56776c-1.79112,0.03216 -3.58347,0.02721 -5.37706,-0.01484c-0.8535,-0.01856 -1.4695,-0.31914 -1.92223,-0.9908c-0.06788,-0.10123 -0.18282,-0.16072 -0.30466,-0.1577c-0.12184,0.003 -0.23369,0.0681 -0.2965,0.17255c-0.60116,0.98462 -1.34457,1.84059 -2.23023,2.56792c-0.09896,0.08164 -0.21276,0.12493 -0.34141,0.12988c-1.29386,0.05937 -2.33414,-0.40696 -3.12084,-1.399c-0.67909,-0.85721 -1.42497,-1.01679 -1.99645,0.04452c-0.02227,0.03711 -0.05195,0.04453 -0.08906,0.02227c-0.04453,-0.02968 -0.08535,-0.06308 -0.12246,-0.10019c-0.08411,-0.08906 -0.16946,-0.08783 -0.25604,0.00371l-0.97968,1.03533c-0.094,0.09896 -0.12246,0.21524 -0.08535,0.34883c0.50962,1.80843 0.40448,3.59089 -0.31543,5.34737c-0.04701,0.11627 -0.06061,0.2375 -0.04082,0.36366c0.02227,0.14349 -0.00743,0.27089 -0.08906,0.38222c-0.76073,1.03905 -1.091,1.79606 -2.17457,2.5939c-0.2944,0.21524 -0.77433,0.39954 -1.43982,0.55292c-1.0143,0.23255 -1.8777,0.7496 -2.59019,1.55114c-0.08411,0.094 -0.18802,0.14472 -0.31171,0.15215c-1.3322,0.09277 -2.20797,0.69764 -3.32494,1.22088c-0.4082,0.19297 -0.80031,0.42181 -1.17635,0.68651c-0.09153,0.06432 -0.19173,0.09895 -0.30058,0.1039c-0.99947,0.05937 -1.95068,0.29069 -2.85367,0.69393c-0.10885,0.04947 -0.16823,0.13236 -0.17812,0.24863z" fill="#e3ac6a" stroke="none" stroke-width="1"/><path d="M259.30415,216.49502l0.24863,0.81268c0.00742,0.02227 0.02226,0.0334 0.04453,0.0334c0.03711,0 0.07051,-0.01113 0.10019,-0.0334c0.05443,-0.03711 0.1002,-0.02968 0.13731,0.02227c0.77928,1.10584 2.69038,0.70506 3.93724,0.2746c1.63774,-0.56158 3.12456,-1.71442 4.46047,-3.45853c0.36367,-0.30677 0.42428,-0.46757 0.18183,-0.48241c0.46757,-0.59621 0.62219,-1.20851 0.46386,-1.83689c-0.03216,-0.12369 -0.10638,-0.21276 -0.22266,-0.26718c-1.3186,-0.61106 -2.70027,-0.96606 -4.14504,-1.06502l1.61423,0.05195c0.00495,0 0.00742,-0.00248 0.00742,-0.00743c0,-0.00248 0,-0.00494 0,-0.00742c0.00248,-0.01732 -0.00248,-0.02598 -0.01485,-0.02598l-2.32672,-0.08163c1.42498,-0.64075 2.81037,-0.86092 4.15618,-0.66054c1.51403,0.22513 2.5036,0.34882 2.9687,0.37109c0.15091,0.00742 0.22636,0.08535 0.22636,0.23378v0.1707c0,0.08411 0.04206,0.11752 0.12617,0.1002l0.79042,-0.18554c0.13606,-0.03216 0.25234,-0.1002 0.34882,-0.2041c0.42551,-0.4552 0.85968,-0.90298 1.30252,-1.34333c0.48488,-0.48241 0.90051,-0.96236 1.24686,-1.43982c1.13305,-1.56351 2.25621,-3.13321 3.36947,-4.70909c0.3414,-0.48736 0.69146,-1.18378 1.05018,-2.08922c0.3043,-0.77186 0.61724,-1.48559 0.93885,-2.14117c1.27407,-2.60256 2.29951,-5.64424 3.07631,-9.12504c0.49973,-2.24136 0.76939,-3.69479 0.80897,-4.36027c0.21524,-3.6317 0.16452,-7.25723 -0.15214,-10.87657c-0.12616,-1.41384 -0.60117,-2.83882 -0.89803,-4.28234c-0.17812,-0.86092 -0.4218,-1.80843 -0.73105,-2.84253c-0.19049,-0.63085 -0.35624,-1.26665 -0.49725,-1.90739c-0.14349,-0.64322 -0.37603,-1.24809 -0.69764,-1.81462c-0.55168,-0.97473 -1.05018,-1.97419 -1.49548,-2.99839c-0.31172,-0.71743 -0.72362,-1.48683 -1.23572,-2.30817c-0.63085,-1.00936 -1.02049,-2.10777 -1.83689,-2.97241c-1.52887,-1.61795 -2.97612,-3.3101 -4.34172,-5.07647c-0.04206,-0.05195 -0.06309,-0.1138 -0.06309,-0.18554c-0.00232,-0.06004 -0.02443,-0.11856 -0.06309,-0.16699c-0.75949,-0.92278 -1.71566,-1.83317 -2.86851,-2.7312c-0.522,-0.40572 -1.13553,-0.93762 -1.84059,-1.59568c-0.62837,-0.58632 -1.2617,-1.08481 -1.89996,-1.49548c-1.5932,-1.0242 -3.1864,-2.04964 -4.7796,-3.07631c-0.10562,-0.06722 -0.18441,-0.16965 -0.22266,-0.28945c-0.31419,-0.95246 0.03093,-1.65381 1.03533,-2.10407c0.49973,-0.22265 1.24562,-0.03092 2.23766,0.57519c4.54953,2.75347 8.30988,5.7803 11.28105,9.0805c8.45336,9.38109 12.62315,20.44073 12.50935,33.17892c-0.11504,12.97321 -6.13779,25.2933 -15.50774,34.16601c-1.06131,1.00441 -3.07136,2.54071 -6.03017,4.6089c-15.17747,9.88206 -34.51855,10.71329 -50.20069,1.25057l-2.1857,-1.2617c-2.70894,-2.01377 -4.53097,-3.44617 -5.46612,-4.29719c-10.35705,-9.42562 -16.16828,-22.31347 -15.88253,-36.33315c0.19297,-9.51715 3.00951,-18.26121 8.44966,-26.23216c2.6174,-3.82962 5.74195,-7.1892 9.37367,-10.07873c1.21964,-0.96978 2.43804,-1.92099 3.65521,-2.85367c1.13182,-0.28203 2.14488,-1.2283 2.84625,-1.61794c0.59621,-0.33151 1.17263,-0.61724 1.72926,-0.85721c0.15239,-0.06301 0.32806,-0.00942 0.41932,0.12792c0.09125,0.13734 0.07261,0.32006 -0.04452,0.43613c-1.31365,1.28397 -2.61245,2.3094 -3.89641,3.07631c-0.87082,0.51952 -1.24067,1.28149 -1.10956,2.2859c0.01485,0.11875 -0.00742,0.23255 -0.06679,0.3414c-0.59869,1.06873 -1.23696,1.9111 -1.91481,2.5271c-1.65505,1.50909 -3.01447,3.00334 -4.07825,4.48274c-0.3748,0.51952 -0.95741,0.6494 -1.30623,1.14667c-0.6927,0.99452 -1.43859,1.94325 -2.23766,2.84624c-0.33892,0.38593 -0.5925,0.82259 -0.76073,1.30994c-0.04205,0.11627 -0.11132,0.21152 -0.20781,0.28573c-1.10584,0.85721 -1.23943,2.1152 -1.69216,2.99467c-0.46262,0.90298 -0.92648,1.80473 -1.39158,2.70523c-0.51705,1.00936 -0.92153,1.93955 -1.21345,2.79058c-1.75648,5.14327 -2.58524,10.64897 -2.48629,16.5171c0.06927,4.03248 0.61601,7.7446 1.64021,11.13633c0.34511,1.14666 0.93143,2.40835 1.36189,3.65521c0.36738,1.0576 0.94999,2.04841 1.48806,3.19878c1.24438,2.65451 2.71141,4.94413 4.4011,6.86882c0.91288,1.03904 1.69586,1.95686 2.34898,2.75347c0.85597,1.04647 1.68474,1.91357 2.48629,2.60133c1.81091,1.55362 3.64902,3.0726 5.51436,4.55695c0.66054,0.52694 1.37426,0.97101 2.14117,1.3322c1.44477,0.67786 2.61369,1.67608 3.50678,2.99467c0.26718,0.3983 0.82258,0.80774 1.66618,1.2283c0.5022,0.25234 1.14666,0.49107 1.93336,0.7162c3.86921,1.10584 6.79832,1.78617 8.78735,2.04099c4.89341,0.62343 10.10223,0.46756 15.62648,-0.46757c0.68528,-0.11627 1.21222,-0.24615 1.58083,-0.38965c1.07244,-0.42303 2.1486,-0.6828 3.28041,-0.88689c0.32409,-0.0569 0.73847,-0.21524 1.24314,-0.47499c0.56405,-0.28945 1.15409,-0.31171 1.71071,-0.616c0.44036,-0.24739 0.90422,-0.4552 1.39158,-0.62343c0.1138,-0.03958 0.20286,-0.11132 0.26719,-0.21523l0.91658,-1.48064c0.07174,-0.11627 0.09525,-0.24245 0.07051,-0.37851z" fill="#fbc488" stroke="none" stroke-width="1"/><path d="M207.73418,160.8579l-0.02968,0.93143l-2.05953,2.47887c-0.07063,0.08481 -0.17536,0.13377 -0.28574,0.13359h-1.07615c-0.13026,0.00034 -0.24662,-0.0832 -0.28945,-0.20781c-0.61106,-1.80843 -0.16328,-3.35711 1.34333,-4.64601c1.06873,-0.90916 2.0113,0.2375 2.39722,1.30993z" fill="#fbe685" stroke="none" stroke-width="1"/><path d="M264.51052,210.49455c-0.54179,-0.03711 -0.92648,0.17812 -1.15409,0.64569c-0.12122,0.24492 -0.08288,0.27213 0.11504,0.08164c0.1608,-0.15338 0.28574,-0.17812 0.3748,-0.07421c0.08906,0.10885 0.20163,0.14472 0.33769,0.10761l0.61971,-0.16328c0.81886,0.38098 1.64763,0.71496 2.48628,1.00194c0.50962,0.1707 0.82876,0.40696 0.95741,0.70878c0.16823,0.38593 0.16328,0.83371 -0.01484,1.34334c-1.33591,1.74411 -2.82274,2.89695 -4.46047,3.45853c-1.24686,0.43046 -3.15795,0.83124 -3.93724,-0.27461c-0.03711,-0.05195 -0.08288,-0.05937 -0.1373,-0.02226c-0.02968,0.02226 -0.06309,0.0334 -0.1002,0.0334c-0.02226,0 -0.03711,-0.01113 -0.04453,-0.0334l-0.24863,-0.81268l0.05567,-1.65876l0.308,-0.92772c0.30058,-0.57148 0.65682,-1.16893 1.22459,-1.54001c0.95988,-0.63085 1.92595,-1.27901 2.8982,-1.9445l2.32671,0.08164c0.01237,0 0.01732,0.00866 0.01485,0.02598c0,0.00248 0,0.00494 0,0.00742c0,0.00495 -0.00247,0.00742 -0.00742,0.00742z" fill="#f2dea1" stroke="none" stroke-width="1"/><path d="M264.51052,210.49455c1.44477,0.09896 2.82645,0.45397 4.14504,1.06502c0.11627,0.05443 0.19049,0.14348 0.22266,0.26718c0.15833,0.62838 0.00371,1.24067 -0.46386,1.83689c0.27708,-1.06873 0.00743,-1.67113 -0.80896,-1.8072c-0.12864,-0.02226 -0.24368,-0.07422 -0.34511,-0.15586c-0.68775,-0.56405 -1.50661,-0.76691 -2.4566,-0.60858l-0.61971,0.16328c-0.13606,0.03711 -0.24863,0.00124 -0.33769,-0.10761c-0.08906,-0.1039 -0.21399,-0.07917 -0.3748,0.07421c-0.19792,0.19049 -0.23626,0.16328 -0.11504,-0.08164c0.22761,-0.46756 0.6123,-0.6828 1.15409,-0.64569z" fill="#fbedb4" stroke="none" stroke-width="1"/><path d="M268.41436,213.66363c0.24244,0.01484 0.18184,0.17565 -0.18183,0.48241c0.17812,-0.50962 0.18307,-0.95741 0.01484,-1.34334c-0.12864,-0.30182 -0.44778,-0.53807 -0.95741,-0.70878c-0.83866,-0.28697 -1.66742,-0.62096 -2.48628,-1.00194c0.94998,-0.15833 1.76885,0.04453 2.4566,0.60858c0.10143,0.08164 0.21647,0.13359 0.34511,0.15586c0.81639,0.13606 1.08605,0.73847 0.80897,1.8072z" fill="#fbedb4" stroke="none" stroke-width="1"/><path d="M207.70449,161.78933l0.02968,-0.93143l0.08906,-1.03905c0.0099,-0.11627 0.06927,-0.19915 0.17812,-0.24863c0.90298,-0.40324 1.8542,-0.63456 2.85367,-0.69393c0.10885,-0.00495 0.20905,-0.03958 0.30058,-0.1039c0.37604,-0.26471 0.76815,-0.49355 1.17635,-0.68651c1.11698,-0.52324 1.99274,-1.1281 3.32494,-1.22088c0.12369,-0.00742 0.2276,-0.05814 0.31171,-0.15215c0.71249,-0.80154 1.57588,-1.3186 2.59019,-1.55114c0.66549,-0.15338 1.14541,-0.33769 1.43982,-0.55292c1.08357,-0.79784 1.41384,-1.55486 2.17457,-2.5939c0.08163,-0.11132 0.11133,-0.23873 0.08906,-0.38222c-0.01979,-0.12616 -0.00619,-0.24739 0.04082,-0.36366c0.71991,-1.75648 -0.83609,-5.31153 -0.74208,-5.41049l2.12254,-1.32104c0.08658,-0.09153 0.17193,-0.09277 0.25604,-0.00371c0.03711,0.03711 0.07793,0.07051 0.12246,0.10019c0.03711,0.02227 0.06679,0.01484 0.08906,-0.02227c0.25261,-0.46913 1.09536,-1.3079 2.64677,-1.38579c1.95832,-0.09833 4.70673,0.59185 5.04216,0.04247c0.06281,-0.10445 0.17466,-0.16954 0.2965,-0.17255c0.12184,-0.00301 0.23677,0.05648 0.30466,0.1577c0.45272,0.67166 1.06873,0.97225 1.92223,0.9908c1.79358,0.04206 3.58594,0.04701 5.37706,0.01484c0.97967,-0.01856 7.76314,0.35624 8.60551,-0.25234c0.15002,-0.10865 0.35905,-0.08807 0.48983,0.04825c0.41723,0.43848 3.62324,-1.20989 5.62385,-1.05339c0.56166,0.04394 1.64161,1.86561 1.79047,1.92174c1.23943,0.46756 2.22033,0.98833 2.94272,1.56228c0.04701,0.03711 0.07174,0.02598 0.07422,-0.0334c0.00248,-0.03711 0.00371,-0.07298 0.00371,-0.10762c0,-0.03711 0.01732,-0.047 0.05196,-0.02969c1.89254,0.87577 3.54636,2.04593 4.96144,3.51049c0.99204,1.02667 1.74906,1.75401 2.27105,2.18199c1.98903,1.63773 3.23711,2.77079 3.74427,3.39916c1.89254,2.36012 3.5142,4.88969 4.86495,7.58873c0.21771,0.43293 0.40944,1.05636 0.57519,1.87028c0.1608,0.7768 0.43788,1.62784 0.83123,2.55308c1.09099,2.5506 1.79483,5.335 2.11149,8.35317c0.05567,0.53437 -0.08905,0.93515 -0.07793,1.35076c0.05195,2.11273 0.07051,4.22421 0.05567,6.33446c-0.00248,0.49725 -0.07422,1.17882 -0.21524,2.04469c-0.08659,0.53437 -0.17565,1.21469 -0.26719,2.04098c-0.20534,1.85296 -0.68775,3.71335 -1.44724,5.58115c-0.56653,1.38787 -1.37549,3.11466 -2.42691,5.18038c-1.13553,2.22652 -2.48753,4.32069 -4.05598,6.28251c-0.01732,0.02227 -0.35006,0.49478 -0.99822,1.41755c-0.67291,0.95988 -1.54125,1.56846 -2.60503,1.82575c-1.80101,0.43294 -3.15177,1.29386 -4.05228,2.58276c-0.07093,0.10178 -0.17993,0.16907 -0.30058,0.18554c-0.3884,0.05195 -0.65929,0.2412 -0.81268,0.56776c-0.04206,0.09153 -0.10638,0.16451 -0.19297,0.21894l-1.9111,1.1949c-0.09153,0.05443 -0.18925,0.07422 -0.29315,0.05937l-0.25605,-0.0371c-0.12122,-0.01732 -0.22018,0.02103 -0.29687,0.11503c-0.29934,0.34882 -0.66424,0.56776 -1.09471,0.65682c-0.12369,0.02721 -0.24121,0.06927 -0.35253,0.12617c-0.42799,0.2276 -0.74836,0.55416 -0.96111,0.97967c-0.0569,0.11627 -0.14225,0.20286 -0.25604,0.25976c-1.20727,0.59869 -2.42444,1.17016 -3.6515,1.71442c-0.6927,0.30677 -1.4893,0.54921 -2.38981,0.72733c-0.75207,0.15091 -1.53506,0.33769 -2.34898,0.56034c-0.12864,0.03463 -0.261,0.05567 -0.39707,0.06309c-1.23201,0.07669 -2.39598,0.12494 -3.49193,0.14473c-0.06185,0.00248 -0.45149,-0.0334 -1.16893,-0.10762c-0.67909,-0.07051 -1.45095,0.24863 -2.0818,-0.08164c-0.10937,-0.05838 -0.23075,-0.08778 -0.35253,-0.08536c-1.53877,0.03463 -3.07384,0.09896 -4.6052,0.19297c-1.29386,0.07916 -2.46526,0.04453 -3.5142,-0.1039c-0.77433,-0.11132 -1.54991,-0.23625 -2.32672,-0.3748c-0.75949,-0.13606 -1.49919,-0.3748 -2.2191,-0.7162c-1.97419,-0.93762 -3.92363,-1.92842 -5.84834,-2.97241c-0.33893,-0.18307 -0.59869,-0.35872 -0.77928,-0.52694c-0.86834,-0.80526 -1.79978,-1.30623 -2.88335,-1.77009c-0.51705,-0.22018 -1.00194,-0.52323 -1.45466,-0.90916c-0.70012,-0.59869 -1.65381,-1.29387 -2.86109,-2.08552c-0.88566,-0.58137 -1.71318,-1.42374 -2.48257,-2.5271c-0.41809,-0.59621 -0.89927,-1.17016 -1.44353,-1.72185c-1.12563,-1.13553 -2.01006,-2.4467 -2.65328,-3.93352c-0.03216,-0.07669 -0.08906,-0.11379 -0.1707,-0.11132c-0.04205,0 -0.08163,0 -0.11874,0c-0.04206,0 -0.07299,-0.01979 -0.09278,-0.05938c-0.78176,-1.39529 -1.57712,-2.78316 -2.38608,-4.1636c-0.48736,-0.82629 -0.84608,-1.67731 -1.07616,-2.55308c-0.50962,-1.91481 -0.97967,-3.83952 -1.41013,-5.77412c-0.16328,-0.73475 -0.14843,-1.93337 -0.43046,-2.89448c-0.13606,-0.46262 -0.21276,-0.84237 -0.23008,-1.13924c-0.27832,-4.197 -0.09648,-8.4979 1.00564,-12.56872c0.522,-1.92471 0.96731,-3.24083 1.33592,-3.94837c0.28945,-0.55663 0.77434,-1.06007 1.45466,-1.51033c0.616,-0.4082 1.0576,-0.78917 1.32477,-1.14294c0.62343,-0.83123 1.15284,-1.68845 1.58826,-2.57164z" fill="#d2924a" stroke="none" stroke-width="1"/><g stroke="none" stroke-width="1"><path d="M219.81247,146.04494c1.60314,1.01102 2.08346,2.56378 1.44094,4.65826c-1.09606,2.60787 -2.50393,2.98582 -4.55432,4.24251l-4.37952,1.93228c-0.15748,0.07244 -0.32283,0.10866 -0.49606,0.10866h-0.59055c-0.32756,-0.00315 -0.34488,0.0189 -0.05197,0.06614c0.37323,0.05669 0.62362,-0.08031 0.9496,0.07559h-1.25669c-0.16063,0 -0.30709,-0.04567 -0.43937,-0.13701l-0.54331,-0.37323c-0.05018,-0.03505 -0.11818,-0.02951 -0.16203,0.01319c-0.04385,0.0427 -0.05119,0.11052 -0.0175,0.16162c0.48504,0.74646 1.26457,0.89606 2.33858,0.44882c-0.18582,0.32126 -0.27874,0.3748 -0.27874,0.16063c-0.93543,0.30866 -1.66771,0.27874 -2.19685,-0.08976c-0.85039,-0.60472 -0.83149,-2.77795 -0.37795,-3.65669c1.34488,-2.61732 3.1496,-4.80629 5.41416,-6.56692c1.59685,-1.24094 3.3307,-1.58897 5.20156,-1.04409zM210.57627,156.64649l-0.81732,-1.12913c-0.08819,-0.12599 -0.16063,-0.11654 -0.21732,0.02835c-0.11968,0.31811 -0.04567,0.57323 0.22205,0.76535c0.07874,0.05669 0.14646,0.12756 0.20315,0.2126c0.16378,0.24567 0.33543,0.35748 0.51496,0.33543c0.15433,-0.01575 0.18582,-0.08661 0.09449,-0.2126z" fill="#fefbe0"/><path d="M210.48178,156.85909c-0.17953,0.02205 -0.35118,-0.08976 -0.51496,-0.33543c-0.05669,-0.08504 -0.12441,-0.15591 -0.20315,-0.2126c-0.26772,-0.19213 -0.34173,-0.44724 -0.22205,-0.76535c0.05669,-0.14488 0.12913,-0.15433 0.21732,-0.02835l0.81732,1.12913c0.09134,0.12599 0.05984,0.19685 -0.09449,0.2126z" fill="#f2dea1"/><path d="M212.1306,157.12838c-0.0252,0.0378 -0.05197,0.07559 -0.08031,0.11339c-1.07401,0.44724 -1.85354,0.29764 -2.33858,-0.44882c-0.03369,-0.05109 -0.02635,-0.11892 0.0175,-0.16162c0.04385,-0.0427 0.11185,-0.04823 0.16203,-0.01319l0.54331,0.37323c0.13228,0.09134 0.27874,0.13701 0.43937,0.13701z" fill="#e8c78f"/></g><path d="M244.28348,187.82302l-2.08791,-0.72391c-0.12954,-0.04318 -0.22988,-0.12319 -0.30099,-0.24003c-1.27256,-2.07648 0.95632,-2.83468 2.6518,-2.40796c0.85853,0.2159 1.01982,0.79884 0.48388,1.74882c-0.10922,0.18797 -0.19431,0.1778 -0.25527,-0.03048l-0.20193,-0.66676c-0.04064,-0.13462 -0.11811,-0.24257 -0.23241,-0.32385c-1.50116,-1.03634 -2.9947,0.97156 -1.1354,1.41353c0.62231,0.14986 1.21668,0.36958 1.78311,0.65914c0.11176,0.05842 0.19559,0.14351 0.25146,0.25527c1.35257,2.72038 -2.64037,3.62336 -3.82911,1.52402c-0.1524,-0.2667 -0.08636,-0.46229 0.19812,-0.58675c0.08166,-0.03468 0.17566,-0.00551 0.22098,0.06858c0.59183,0.9576 1.42877,1.19763 2.51083,0.7201c0.28495,-0.12581 0.46395,-0.41309 0.45134,-0.72431c-0.01262,-0.31123 -0.2143,-0.58308 -0.50849,-0.68541z" fill="#fdd380" stroke="none" stroke-width="1"/><path d="M231.45121,186.41711c0.7201,0.32766 1.79073,0.42673 2.35461,0.9868c0.94489,0.93727 0.34291,2.37367 -0.88774,2.68228c-0.74296,0.18669 -2.81563,-0.14097 -2.75467,-1.34114c0.00611,-0.11267 0.08343,-0.20887 0.19214,-0.23907c0.10872,-0.0302 0.22458,0.01234 0.28792,0.10572c0.63755,0.92711 1.46052,1.13286 2.46892,0.61723c0.27163,-0.13933 0.43389,-0.42734 0.41232,-0.73186c-0.02157,-0.30452 -0.22281,-0.56678 -0.51138,-0.66642c-0.84583,-0.28956 -2.38129,-0.48388 -2.56036,-1.56593c-0.38101,-2.2746 2.16792,-2.27079 3.42524,-1.48973c0.127,0.07874 0.18542,0.19304 0.17526,0.34291l-0.06477,0.96775c-0.00783,0.0953 -0.07919,0.17322 -0.17344,0.18938c-0.09425,0.01616 -0.18749,-0.03354 -0.22661,-0.12079l-0.35434,-0.8344c-0.02488,-0.0572 -0.06589,-0.10614 -0.11811,-0.14097c-0.49531,-0.32766 -1.0338,-0.38354 -1.61546,-0.16764c-0.28795,0.10825 -0.48257,0.37901 -0.49339,0.68644c-0.01083,0.30743 0.16425,0.59123 0.44387,0.71947z" fill="#fdd380" stroke="none" stroke-width="1"/><path d="M247.99067,185.19789c-2.16411,1.42877 -0.17145,6.15705 2.44225,3.5243c0.05317,-0.05494 0.1332,-0.07438 0.20565,-0.04996c0.07245,0.02442 0.12438,0.08835 0.13344,0.16426c0.04572,0.35307 -0.0889,0.62358 -0.40387,0.81154c-4.6597,2.7661 -6.16467,-6.35136 -0.60199,-5.17025c1.08968,0.2286 1.18493,1.1735 0.61342,1.99266c-0.03165,0.04475 -0.08637,0.06709 -0.14031,0.05728c-0.05393,-0.0098 -0.09728,-0.04998 -0.11116,-0.103l-0.26289,-0.99823c-0.01701,-0.06365 -0.05796,-0.11825 -0.1143,-0.1524c-0.64517,-0.39878 -1.23192,-0.42419 -1.76025,-0.0762z" fill="#fdd380" stroke="none" stroke-width="1"/><path d="M256.13325,187.89297c0.00709,0.57998 -0.21651,1.13902 -0.62161,1.55414c-0.4051,0.41512 -0.95851,0.6523 -1.53849,0.65939l-0.38097,0.00465c-1.20773,0.01476 -2.19876,-0.95234 -2.21353,-2.16007l-0.01657,-1.35627c-0.00709,-0.57998 0.21652,-1.13902 0.62162,-1.55414c0.4051,-0.41512 0.95851,-0.6523 1.53849,-0.65939l0.38097,-0.00465c1.20773,-0.01476 2.19876,0.95234 2.21353,2.16007zM253.86604,189.4847c0.91189,-0.04941 1.59641,-1.0995 1.52894,-2.34547c-0.06748,-1.24598 -0.86142,-2.216 -1.77331,-2.16663c-0.91189,0.04941 -1.59641,1.0995 -1.52894,2.34547c0.06748,1.24598 0.86142,2.216 1.77331,2.16663z" fill="#fdd380" stroke="none" stroke-width="1"/><path d="M224.17781,187.14102c0.80265,0.65279 0.94235,1.44401 0.41911,2.37367c-0.06096,0.11176 -0.15113,0.18797 -0.27051,0.2286c-1.04903,0.36831 -2.12728,0.45974 -3.23474,0.27432c-0.12192,-0.02032 -0.18288,-0.09144 -0.18288,-0.21336l-0.02286,-4.26345c-0.00002,-0.07313 -0.03031,-0.14336 -0.08382,-0.19431l-0.36577,-0.35434c-0.15748,-0.14986 -0.12954,-0.24384 0.08382,-0.28194c1.58117,-0.28575 4.59112,-0.86488 4.04247,1.6688c-0.02683,0.12934 -0.10347,0.24293 -0.21336,0.31623l-0.15621,0.10668c-0.15748,0.10668 -0.16256,0.21971 -0.01524,0.3391zM221.53744,185.21313l0.17145,1.70691c0.00288,0.02937 0.01739,0.05636 0.04029,0.07497c0.0229,0.01861 0.0523,0.02728 0.08163,0.02409l1.01348,-0.10287c0.64554,-0.06489 1.12945,-0.51302 1.08206,-1.00204l-0.01143,-0.1524c-0.02366,-0.23534 -0.16983,-0.44865 -0.40636,-0.593c-0.23652,-0.14434 -0.54401,-0.20788 -0.85477,-0.17663l-1.01729,0.09906c-0.02937,0.00288 -0.05636,0.01739 -0.07497,0.04029c-0.01861,0.0229 -0.02728,0.0523 -0.02409,0.08163zM221.64794,187.7773l-0.00762,1.34114c-0.00001,0.17317 0.13926,0.31415 0.31242,0.31623l1.07063,0.00762c0.31361,0.00245 0.61515,-0.09177 0.83814,-0.26187c0.22299,-0.1701 0.34913,-0.40213 0.3506,-0.64492v-0.14478c0.0031,-0.50441 -0.52198,-0.91697 -1.1735,-0.92203l-1.07063,-0.00762c-0.08453,-0.00102 -0.16595,0.03185 -0.22608,0.09126c-0.06013,0.05942 -0.09397,0.14043 -0.09397,0.22497z" fill="#fdd380" stroke="none" stroke-width="1"/><path d="M226.76484,187.64395l-0.01143,1.52402c-0.00038,0.0746 0.03094,0.14585 0.08618,0.196c0.05523,0.05015 0.12917,0.07446 0.20339,0.0669l2.37367,-0.25527c0.16002,-0.01524 0.24384,0.05715 0.25146,0.21717l0.02286,0.42292c0.00417,0.06354 -0.01834,0.12601 -0.06227,0.17282c-0.04393,0.04681 -0.10543,0.07386 -0.17014,0.07484l-3.28808,0.03429c-0.09743,0.00002 -0.177,-0.07785 -0.17907,-0.17526l-0.11811,-4.07295c-0.00254,-0.14224 -0.04191,-0.27432 -0.11811,-0.39625l-0.32004,-0.53341c-0.08382,-0.1397 -0.04572,-0.21336 0.1143,-0.22098l3.79101,-0.20955c0.06121,-0.00331 0.12061,0.02137 0.16087,0.06684c0.04026,0.04547 0.05683,0.10661 0.04487,0.16557l-0.06096,0.28956c-0.03048,0.14732 -0.12065,0.22098 -0.27051,0.22098l-2.37367,0.00762c-0.15748,0 -0.22733,0.07874 -0.20955,0.23622l0.14478,1.28018c0.00573,0.0537 0.03273,0.10287 0.07497,0.13651c0.04224,0.03365 0.0962,0.04897 0.14982,0.04256l1.8174,-0.1905c0.09216,-0.00866 0.18387,0.01909 0.25472,0.07706c0.07085,0.05797 0.11495,0.14134 0.12247,0.23156c0.02794,0.32004 -0.11557,0.48642 -0.43054,0.49912c-0.60453,0.02032 -1.20779,-0.00508 -1.80978,-0.0762c-0.12446,-0.01524 -0.18797,0.04064 -0.1905,0.16764z" fill="#fdd380" stroke="none" stroke-width="1"/><path d="M237.30346,185.39982l-0.03429,4.64446c0.00011,0.04349 -0.0179,0.08506 -0.04972,0.11471c-0.03182,0.02965 -0.07456,0.04469 -0.11793,0.04151l-0.6058,-0.04953c-0.08178,-0.006 -0.145,-0.07421 -0.14478,-0.15621l0.01524,-4.63684c-0.00075,-0.04428 -0.02027,-0.08618 -0.05369,-0.11524c-0.03343,-0.02906 -0.07761,-0.04257 -0.12158,-0.03716l-1.27256,0.1524c-0.06224,0.00625 -0.1222,-0.02523 -0.1524,-0.08001l-0.22479,-0.40387c-0.02651,-0.04732 -0.02657,-0.10502 -0.00016,-0.1524c0.02641,-0.04738 0.07551,-0.07767 0.12971,-0.08001l4.16439,-0.16764c0.04552,-0.00245 0.08984,0.01511 0.12133,0.04806c0.03149,0.03296 0.04702,0.07803 0.0425,0.12339l-0.04572,0.48769c-0.00798,0.08176 -0.07792,0.14336 -0.16002,0.14097l-1.32971,-0.03048c-0.04209,-0.00102 -0.0828,0.01498 -0.11293,0.04439c-0.03013,0.02941 -0.04711,0.06973 -0.04709,0.11183z" fill="#fdd380" stroke="none" stroke-width="1"/><path d="M259.66848,187.43058c-0.08724,0.022 -0.15656,0.08844 -0.18173,0.17419c-0.02518,0.08575 -0.00236,0.17772 0.05981,0.24111l1.54688,1.60022c0.09144,0.09652 0.13462,0.21083 0.12954,0.34291l-0.01143,0.15621c-0.00313,0.0679 -0.04366,0.12846 -0.10523,0.15725c-0.06157,0.02879 -0.13403,0.02105 -0.18814,-0.02009c-1.01094,-0.76709 -1.87074,-1.68404 -2.57941,-2.75086c-0.07794,-0.11612 -0.07561,-0.26842 0.00584,-0.38211c0.08145,-0.11369 0.2249,-0.16488 0.35992,-0.12844c0.34544,0.08636 0.69343,0.0889 1.04396,0.00762c0.30237,-0.07028 0.53586,-0.31061 0.59737,-0.61489c0.06151,-0.30427 -0.06029,-0.61644 -0.31162,-0.79864c-0.57405,-0.41656 -1.21795,-0.50547 -1.9317,-0.2667c-0.10668,0.03556 -0.15875,0.10922 -0.15621,0.22098l0.09525,4.53016c0.00254,0.12446 -0.05842,0.18669 -0.18288,0.18669h-0.42673c-0.13046,0 -0.23622,-0.10747 -0.23622,-0.24003l-0.00762,-3.9777c0.00008,-0.12919 -0.03841,-0.25526 -0.11049,-0.36196l-0.38482,-0.5677c-0.09652,-0.1397 -0.06096,-0.22352 0.10668,-0.25146c1.12397,-0.18669 3.65384,-0.68581 4.03866,0.70867c0.29973,1.09475 -0.09017,1.77294 -1.16969,2.03457z" fill="#fdd380" stroke="none" stroke-width="1"/><path d="M263.02134,187.73539l-0.04953,1.364c-0.00343,0.0754 0.02569,0.14869 0.08016,0.2017c0.05446,0.05301 0.12917,0.08078 0.2056,0.07643l2.32413,-0.13716c0.1298,-0.00913 0.24645,0.07673 0.27432,0.20193c0.04826,0.20574 0.01905,0.36577 -0.08763,0.48007c-0.07874,0.08128 -0.21717,0.12573 -0.4153,0.13335c-0.98045,0.03302 -1.96091,0.04191 -2.94136,0.02667c-0.13208,-0.00254 -0.19939,-0.07112 -0.20193,-0.20574l-0.08763,-4.27488c-0.00002,-0.03252 -0.00788,-0.06396 -0.02286,-0.09144l-0.31623,-0.60199c-0.06604,-0.127 -0.02794,-0.19558 0.1143,-0.20574l3.60812,-0.26289c0.07284,-0.0053 0.14476,0.01825 0.19983,0.06546c0.05507,0.0472 0.08873,0.11415 0.09354,0.18601l0.02286,0.26289c0.0127,0.18288 -0.07239,0.27432 -0.25527,0.27432l-2.3851,-0.01524c-0.12415,0 -0.22479,0.09894 -0.22479,0.22098l0.01143,1.31066c-0.00038,0.05502 0.02304,0.10757 0.06444,0.14462c0.0414,0.03705 0.0969,0.0551 0.15274,0.0497l2.00028,-0.20574c0.21844,-0.02286 0.32004,0.0762 0.3048,0.29718l-0.02286,0.33147c-0.01016,0.13462 -0.08382,0.1994 -0.22098,0.19431l-1.98504,-0.04953c-0.15494,-0.00508 -0.23495,0.07112 -0.24003,0.2286z" fill="#fdd380" stroke="none" stroke-width="1"/><path d="M221.53744,185.21313c-0.00319,-0.02934 0.00548,-0.05873 0.02409,-0.08163c0.01861,-0.0229 0.0456,-0.03741 0.07497,-0.04029l1.01729,-0.09906c0.31076,-0.03125 0.61825,0.03229 0.85477,0.17663c0.23652,0.14434 0.3827,0.35766 0.40636,0.593l0.01143,0.1524c0.0474,0.48903 -0.43651,0.93716 -1.08206,1.00204l-1.01348,0.10287c-0.02934,0.00319 -0.05873,-0.00548 -0.08163,-0.02409c-0.0229,-0.01861 -0.03741,-0.04561 -0.04029,-0.07497z" fill="#d2924a" stroke="none" stroke-width="1"/><path d="M253.62167,184.97259c0.9119,-0.04939 1.70585,0.92065 1.77333,2.16663c0.06748,1.24598 -0.61706,2.29609 -1.52896,2.34548c-0.9119,0.04939 -1.70585,-0.92065 -1.77333,-2.16663c-0.06748,-1.24598 0.61706,-2.29609 1.52896,-2.34548z" fill="#d2924a" stroke="none" stroke-width="1"/><path d="M221.64794,187.7773c0,-0.08454 0.03383,-0.16555 0.09397,-0.22497c0.06013,-0.05942 0.14155,-0.09228 0.22608,-0.09126l1.07063,0.00762c0.65152,0.00506 1.17659,0.41762 1.1735,0.92203v0.14478c-0.00147,0.2428 -0.12761,0.47482 -0.3506,0.64492c-0.22299,0.1701 -0.52453,0.26432 -0.83814,0.26187l-1.07063,-0.00762c-0.17316,-0.00208 -0.31244,-0.14306 -0.31242,-0.31623z" fill="#d2924a" stroke="none" stroke-width="1"/><path d="M220.35259,153.61145c-0.07793,0.06539 -0.15764,0.1222 -0.22157,0.15791c-0.06393,0.03571 -0.10686,0.04741 -0.11934,0.03252c-0.02601,-0.03098 0.08446,-0.16648 0.24673,-0.30265c0.07793,-0.06539 0.15764,-0.1222 0.22157,-0.15791c0.06393,-0.03571 0.10686,-0.04741 0.11934,-0.03252c0.02601,0.03098 -0.08446,0.16648 -0.24673,0.30265z" fill="#d4a16b" stroke="none" stroke-width="1"/><g stroke="none"><path d="M265.21326,143.1567c-0.73629,0.73115 -1.55995,1.26698 -2.471,1.6075c-3.95707,0.94831 -7.83318,-0.97722 -8.04905,-5.37567c-0.01927,-0.40862 0.00835,-1.12049 0.08288,-2.13562c0.00642,-0.09252 -0.03662,-0.13749 -0.12914,-0.13492l-1.84072,0.06361c-0.07944,0.00212 -0.14996,0.05141 -0.17925,0.12528c-0.11308,0.28269 -0.16448,0.62514 -0.1542,1.02733c0.02184,0.96501 0.00771,2.60271 -0.0424,4.91308c-0.01542,0.78062 -0.06939,1.28369 -0.9194,1.49763c-0.86543,0.2178 -2.90275,0.57438 -3.27282,-0.53969c-0.03084,-0.09252 -0.06746,-0.50435 -0.10986,-1.2355c-0.05268,-0.91875 -0.11501,-1.83687 -0.18696,-2.75433c-0.00514,-0.07967 -0.01927,-0.1497 -0.0424,-0.21009c-0.0142,-0.03803 -0.05289,-0.06112 -0.09311,-0.05558c-0.04022,0.00555 -0.07121,0.03825 -0.07458,0.07871c-0.51078,5.47976 -7.34553,6.32205 -10.55282,2.75048c-0.01666,-0.01898 -0.04139,-0.02886 -0.06655,-0.02657c-0.02515,0.00229 -0.0477,0.01646 -0.06066,0.03813c-0.38742,0.66304 -0.88663,1.16804 -1.59786,1.52462c-2.31295,1.16161 -4.53145,1.05753 -6.6555,-0.31225c-0.91361,-0.58787 -1.50727,-1.28369 -1.92553,-2.25705c-0.03066,-0.07013 -0.10134,-0.11414 -0.1778,-0.11072c-0.07646,0.00342 -0.14293,0.05356 -0.16721,0.12614c-1.07938,3.25354 -5.17522,3.68144 -8.03556,2.90082c-1.15262,-0.31867 -2.12855,-1.00485 -2.9278,-2.05852c-0.61871,-0.69774 -1.31067,-2.13948 -0.48379,-2.9413c0.52298,-0.50756 0.91618,-0.80696 1.1796,-0.89819c1.75398,-0.60715 1.74627,1.27598 2.97792,1.91204c0.66112,0.33923 1.51883,0.36429 2.24934,0.31225c0.50885,-0.03469 1.15647,-0.60137 0.69388,-1.11792c-0.36622,-0.40862 -0.74207,-0.63028 -1.30103,-0.82302c-0.67204,-0.23001 -1.34279,-0.4658 -2.01226,-0.70738c-2.69458,-0.96566 -4.16523,-2.5134 -3.52532,-5.69178c0.50307,-2.50184 2.79674,-3.64867 5.20798,-3.71035c1.91975,-0.04883 3.61591,0.45488 5.08848,1.51113c0.60329,0.43368 0.90205,1.06974 0.8076,1.85614c-0.1195,0.99071 -0.27691,1.89854 -0.47223,2.72349c-0.13107,0.55511 -0.67461,0.5686 -1.09479,0.70738c-0.06653,0.02154 -0.11418,0.08017 -0.12167,0.1497c-0.00749,0.06953 0.02657,0.13696 0.08698,0.17219c0.58081,0.34437 1.05881,0.79604 1.43403,1.355c0.02831,0.04195 0.0788,0.06313 0.12857,0.05393c0.04977,-0.0092 0.08935,-0.04703 0.10079,-0.09634c0.48058,-2.13305 1.78932,-3.52853 3.92623,-4.18643c2.07009,-0.63606 3.98598,-0.32895 5.74767,0.92132c0.38356,0.27177 0.5898,0.61679 0.75556,1.03504c0.01959,0.04963 0.06462,0.08468 0.11754,0.09149c0.05292,0.00682 0.10536,-0.01568 0.13688,-0.05872c0.38935,-0.54162 0.79218,-1.02733 1.37813,-1.36849c2.78903,-1.62099 7.05834,-1.2008 8.63693,1.98913c0.26599,0.53712 0.44203,1.03826 0.52812,1.50342c0.10794,0.5898 0.1664,0.58273 0.1754,-0.0212c0.01156,-0.71316 -0.00129,-1.46165 -0.03855,-2.24549c-0.02891,-0.59366 0.00578,-1.7482 0.57245,-2.10285c0.50499,-0.3161 2.46329,0.07132 3.16874,0.19275c1.07167,0.18504 2.01034,-0.55318 3.06273,-0.02313c0.70545,0.35658 0.82302,1.39933 0.81339,2.10478c-0.00129,0.10151 0.03405,0.16448 0.10601,0.18889c0.05497,0.01728 0.11474,-0.00396 0.14649,-0.05204c1.45137,-2.19537 4.23655,-2.96828 6.67092,-2.09514c1.30553,0.46901 2.26155,1.37042 2.86805,2.70422c0.57567,1.2657 0.78897,2.43116 0.63992,3.4964c-0.04112,0.2994 -0.26213,0.60458 -0.66304,0.91554c-0.05548,0.04245 -0.08231,0.11253 -0.06939,0.18118c0.18889,1.03504 0.90976,1.62292 0.02506,2.61556zM216.3812,132.81784c-0.95987,3.72384 2.67338,4.45049 5.23111,5.31592c1.26827,0.4279 2.39197,1.39933 1.6287,2.84878c-0.34052,0.64763 -0.9663,1.01191 -1.87734,1.09287c-1.94159,0.1709 -3.35441,-0.56153 -4.23847,-2.1973c-0.0396,-0.07384 -0.10928,-0.12687 -0.191,-0.14536c-0.08172,-0.01849 -0.16744,-0.00062 -0.23497,0.04899l-0.80953,0.58595c-0.04042,0.0295 -0.06636,0.07508 -0.07132,0.12528c-0.01927,0.22744 0.0424,0.47929 0.18504,0.75556c1.11407,2.13948 3.2998,2.94901 5.61853,2.71578c2.12213,-0.21588 3.8472,-1.20273 4.14981,-3.40967c0.4915,-3.57928 -2.55773,-4.36569 -5.20413,-5.1039c-0.74785,-0.20817 -2.0007,-0.74207 -2.08936,-1.64605c-0.20046,-2.02576 2.00648,-2.41703 3.53495,-1.93517c1.28369,0.40284 1.59401,1.46101 1.8253,2.64254c0.01282,0.06401 0.06049,0.11541 0.12336,0.13299c0.33152,0.08738 0.65726,0.07132 0.97722,-0.04819c0.08095,-0.02955 0.12785,-0.08674 0.1407,-0.17154l0.37778,-2.43438c0.01226,-0.07475 -0.00804,-0.15175 -0.0559,-0.21202c-1.97179,-2.51147 -8.09724,-2.55195 -9.02049,1.0389zM220.09155,132.86603c-0.36108,0.08866 -0.55832,0.28655 -0.59173,0.59366c-0.00866,0.07856 0.01658,0.15708 0.06939,0.21588c0.63028,0.70545 2.17224,1.09479 3.06465,1.31067c0.0465,0.01164 0.09574,-0.00021 0.13186,-0.03172c0.03612,-0.03151 0.05454,-0.07869 0.04932,-0.12634c-0.19531,-1.71158 -1.10315,-2.36563 -2.72349,-1.96215zM251.41656,134.90335l-0.03662,-0.64184c-0.00514,-0.07324 -0.04369,-0.11372 -0.11565,-0.12143l-2.17995,-0.24093c-0.0385,-0.00454 -0.07706,0.00819 -0.10558,0.03486c-0.02852,0.02667 -0.04416,0.06462 -0.04284,0.10392l0.32189,9.77605c0.00092,0.03619 0.01677,0.07038 0.04378,0.09447c0.02702,0.0241 0.06279,0.03594 0.09885,0.03274l1.80024,-0.15805c0.10036,-0.00889 0.17776,-0.09295 0.17925,-0.19467c0.01542,-1.83622 0.03148,-3.68337 0.04819,-5.54143c0.00514,-0.54226 0.09445,-0.94381 0.26792,-1.20466c0.58787,-0.87892 1.85614,-0.93289 2.8083,-0.72472c0.09123,0.01927 0.12914,-0.01735 0.11372,-0.10986l-0.30261,-1.82723c-0.01037,-0.06263 -0.05897,-0.112 -0.12143,-0.12336c-1.07552,-0.19018 -1.95573,0.1073 -2.64061,0.89241c-0.08481,0.09766 -0.13043,0.08224 -0.13685,-0.04626zM235.35122,141.31984c-1.55931,1.16997 -4.15174,1.4109 -5.13667,-0.52234c-0.67461,-1.32223 -0.58016,-3.59856 0.79218,-4.57578c1.27598,-0.9059 3.13404,-0.46644 4.28859,0.45102c0.02529,0.0207 0.05909,0.02778 0.09056,0.01895c0.03147,-0.00883 0.05666,-0.03244 0.06749,-0.06328l0.40284,-1.07938c0.0256,-0.0685 0.01924,-0.14485 -0.01735,-0.20817c-0.6245,-1.08516 -2.94515,-1.44174 -4.01489,-1.34536c-1.70773,0.15034 -3.454,1.1584 -4.03224,2.85456c-0.74207,2.17417 -0.44331,5.15402 1.76362,6.41264c1.71929,0.98107 4.85333,1.08516 6.32398,-0.65726c0.043,-0.05029 0.06323,-0.11657 0.0559,-0.18311c-0.0424,-0.39834 -0.18247,-0.75813 -0.42019,-1.07938c-0.01823,-0.02483 -0.04578,-0.04123 -0.07654,-0.04558c-0.03076,-0.00434 -0.06218,0.00374 -0.08729,0.02245zM246.81004,138.32162c-0.02032,-1.16432 -0.50234,-2.27288 -1.34001,-3.08181c-0.83767,-0.80893 -1.96238,-1.25196 -3.1267,-1.23164l-0.84411,0.01475c-2.42457,0.04233 -4.35575,2.04214 -4.31343,4.4667l0.01762,1.00983c0.02032,1.16432 0.50234,2.27288 1.34001,3.08181c0.83767,0.80893 1.96238,1.25196 3.1267,1.23164l0.84411,-0.01475c2.42457,-0.04233 4.35575,-2.04214 4.31343,-4.4667zM260.5951,143.9277c0.46259,0.10922 0.91104,0.0681 1.34536,-0.12336c0.96116,-0.18761 1.75655,-0.65341 2.38619,-1.39741c0.33538,-0.39898 -0.02313,-1.12371 -0.31225,-1.45137c-0.02049,-0.02323 -0.04998,-0.03654 -0.08095,-0.03654c-0.03098,0 -0.06046,0.01331 -0.08095,0.03654c-1.14876,1.2779 -3.86069,1.91204 -5.0827,0.40091c-1.09287,-1.35115 -1.23935,-4.35605 0.53198,-5.30436c1.41282,-0.75942 2.91624,-0.239 3.1591,1.45137c0.00599,0.04114 -0.00532,0.08293 -0.03125,0.11543c-0.02593,0.0325 -0.06416,0.05281 -0.1056,0.05611l-3.86455,0.32189c-0.03876,0.00359 -0.07415,0.02351 -0.09733,0.05478c-0.02318,0.03127 -0.03194,0.07093 -0.0241,0.10905l0.24671,1.16033c0.01369,0.06434 0.07004,0.11022 0.13492,0.10986l5.96355,0.01349c0.07067,0 0.10922,-0.03534 0.11565,-0.10601c0.20624,-2.31295 -0.93096,-4.91501 -3.40389,-5.27545c-7.07762,-1.03119 -7.66164,9.83002 -0.79989,9.86472zM231.42499,137.25677c-0.70159,0.67654 -0.66304,2.01226 -0.35658,2.88155c0.37778,1.07359 1.8041,1.15069 2.72349,0.82881c0.65533,-0.23129 1.32416,-0.96566 2.15297,-0.55896c0.05664,0.02798 0.12414,0.02217 0.17516,-0.01508c0.05102,-0.03725 0.07711,-0.09977 0.0677,-0.16225c-0.12978,-0.84551 -0.13043,-1.69231 -0.00193,-2.54039c0.00984,-0.06473 -0.02076,-0.12892 -0.07723,-0.16204c-0.05647,-0.03312 -0.12743,-0.02849 -0.17912,0.0117c-0.65533,0.51078 -1.30489,-0.04433 -1.91011,-0.39127c-0.72087,-0.4144 -1.9448,-0.51656 -2.59436,0.10794zM262.38754,140.77145c-0.00213,-0.1735 -0.60528,-0.3068 -1.34718,-0.29773c-0.35629,0.00435 -0.69758,0.04163 -0.94878,0.10362c-0.25121,0.062 -0.39176,0.14363 -0.39072,0.22695c0.00213,0.1735 0.60528,0.3068 1.34718,0.29773c0.35629,-0.00435 0.69758,-0.04163 0.94878,-0.10362c0.25121,-0.062 0.39176,-0.14363 0.39072,-0.22695z" fill="#8d5e12" stroke-width="1"/><path d="M262.04562,141.00919c-0.2512,0.06199 -0.6407,0.13848 -0.99699,0.14283c-0.7419,0.00907 -1.39566,-0.17362 -1.39779,-0.34712c-0.00104,-0.08332 0.14068,-0.17635 0.39189,-0.23835c0.2512,-0.06199 0.6407,-0.13848 0.99699,-0.14283c0.7419,-0.00907 1.39566,0.17362 1.39779,0.34712c0.00104,0.08332 -0.14068,0.17635 -0.39189,0.23835z" data-paper-data="{&quot;noHover&quot;:false,&quot;origItem&quot;:[&quot;Path&quot;,{&quot;applyMatrix&quot;:true,&quot;segments&quot;:[[[262.38752,142.77144],[0.00104,0.08332],[-0.00213,-0.1735]],[[261.04034,142.47371],[0.7419,-0.00907],[-0.35629,0.00435]],[[260.09156,142.57733],[0.2512,-0.06199],[-0.25121,0.062]],[[259.70084,142.80428],[-0.00104,-0.08332],[0.00213,0.1735]],[[261.04802,143.10201],[-0.7419,0.00907],[0.35629,-0.00435]],[[261.9968,142.99839],[-0.2512,0.06199],[0.25121,-0.062]]],&quot;closed&quot;:true,&quot;fillColor&quot;:[0,0,0,1]}]}" fill="#e3ac6a" stroke-width="0.5"/><path d="M231.38627,137.22511c0.64956,-0.6245 1.92529,-0.53894 2.64616,-0.12454c0.60522,0.34694 1.28464,0.92471 1.93997,0.41393c0.05169,-0.04019 0.12334,-0.04363 0.17981,-0.01051c0.05647,0.03312 0.08847,0.1 0.07863,0.16473c-0.1285,0.84808 -0.12767,1.73794 0.00211,2.58345c0.00941,0.06248 -0.01803,0.12765 -0.06905,0.1649c-0.05102,0.03725 -0.11938,0.04456 -0.17602,0.01658c-0.82881,-0.4067 -1.534,0.35173 -2.18933,0.58302c-0.91939,0.32188 -2.39754,0.21665 -2.77532,-0.85694c-0.30646,-0.86929 -0.33854,-2.25809 0.36305,-2.93463z" data-paper-data="{&quot;noHover&quot;:false,&quot;origItem&quot;:[&quot;Path&quot;,{&quot;applyMatrix&quot;:true,&quot;segments&quot;:[[[231.42497,139.25676],[0,0],[-0.70159,0.67654]],[[231.06839,142.13831],[-0.30646,-0.86929],[0.37778,1.07359]],[[233.79188,142.96712],[-0.91939,0.32188],[0.65533,-0.23129]],[[235.94485,142.40816],[-0.82881,-0.4067],[0.05664,0.02798]],[[236.12001,142.39308],[-0.05102,0.03725],[0.05102,-0.03725]],[[236.18771,142.23083],[0.00941,0.06248],[-0.12978,-0.84551]],[[236.18578,139.69044],[-0.1285,0.84808],[0.00984,-0.06473]],[[236.10855,139.5284],[0.05647,0.03312],[-0.05647,-0.03312]],[[235.92943,139.5401],[0.05169,-0.04019],[-0.65533,0.51078]],[[234.01932,139.14883],[0.60522,0.34694],[-0.72087,-0.4144]],[[231.42496,139.25677],[0.64956,-0.6245],[0,0]]],&quot;closed&quot;:true,&quot;fillColor&quot;:[0,0,0,1]}]}" fill="#e3ac6a" stroke-width="0.5"/><path d="M216.3812,132.81784c0.92325,-3.59085 7.0487,-3.55037 9.02049,-1.0389c0.04785,0.06027 0.06815,0.13727 0.0559,0.21202l-0.37778,2.43438c-0.01285,0.08481 -0.05975,0.14199 -0.1407,0.17154c-0.31996,0.1195 -0.6457,0.13556 -0.97722,0.04819c-0.06287,-0.01759 -0.11054,-0.06898 -0.12336,-0.13299c-0.23129,-1.18153 -0.54162,-2.2397 -1.8253,-2.64254c-1.52847,-0.48186 -3.73541,-0.09059 -3.53495,1.93517c0.08866,0.90398 1.34151,1.43788 2.08936,1.64605c2.6464,0.73822 5.69563,1.52462 5.20413,5.1039c-0.30261,2.20694 -2.02768,3.19379 -4.14981,3.40967c-2.31873,0.23322 -4.50446,-0.57631 -5.61853,-2.71578c-0.14263,-0.27627 -0.20431,-0.52812 -0.18504,-0.75556c0.00495,-0.05021 0.0309,-0.09578 0.07132,-0.12528l0.80953,-0.58595c0.06752,-0.0496 0.15325,-0.06748 0.23497,-0.04899c0.08172,0.01849 0.1514,0.07152 0.191,0.14536c0.88406,1.63577 2.29689,2.3682 4.23847,2.1973c0.91104,-0.08095 1.53682,-0.44524 1.87734,-1.09287c0.76327,-1.44945 -0.36043,-2.42088 -1.6287,-2.84878c-2.55773,-0.86543 -6.19099,-1.59208 -5.23111,-5.31592z" fill="#fefbe0" stroke-width="1"/><path d="M220.09155,132.86603c1.62035,-0.40348 2.52818,0.25057 2.72349,1.96215c0.00522,0.04764 -0.0132,0.09483 -0.04932,0.12634c-0.03612,0.03151 -0.08537,0.04335 -0.13186,0.03172c-0.89241,-0.21588 -2.43438,-0.60522 -3.06465,-1.31067c-0.05281,-0.0588 -0.07805,-0.13732 -0.06939,-0.21588c0.03341,-0.30711 0.23065,-0.50499 0.59173,-0.59366z" fill="#e3ac6a" stroke-width="1"/><path d="M251.55341,134.94959c0.68489,-0.78512 1.56509,-1.08259 2.64061,-0.89241c0.06246,0.01136 0.11106,0.06072 0.12143,0.12336l0.30261,1.82723c0.01542,0.09252 -0.02249,0.12914 -0.11372,0.10986c-0.95216,-0.20817 -2.22043,-0.1542 -2.8083,0.72472c-0.17347,0.26085 -0.26278,0.6624 -0.26792,1.20466c-0.01671,1.85807 -0.03277,3.70521 -0.04819,5.54143c-0.00149,0.10172 -0.0789,0.18578 -0.17925,0.19467l-1.80024,0.15805c-0.03606,0.00321 -0.07183,-0.00864 -0.09885,-0.03274c-0.02702,-0.0241 -0.04286,-0.05829 -0.04378,-0.09447l-0.32189,-9.77605c-0.00133,-0.0393 0.01432,-0.07725 0.04284,-0.10392c0.02852,-0.02667 0.06708,-0.0394 0.10558,-0.03486l2.17995,0.24093c0.07196,0.00771 0.11051,0.04819 0.11565,0.12143l0.03662,0.64184c0.00642,0.1285 0.05204,0.14392 0.13685,0.04626z" fill="#fefbe0" stroke-width="1"/><path d="M230.21455,140.79751c0.98493,1.93324 3.57736,1.69231 5.13667,0.52234c0.02512,-0.01871 0.05654,-0.02679 0.08729,-0.02245c0.03076,0.00434 0.05831,0.02075 0.07654,0.04558c0.23772,0.32124 0.37778,0.68103 0.42019,1.07938c0.00733,0.06654 -0.0129,0.13282 -0.0559,0.18311c-1.47065,1.74242 -4.60469,1.63834 -6.32398,0.65726c-2.20694,-1.25863 -2.50569,-4.23847 -1.76362,-6.41264c0.57824,-1.69616 2.32451,-2.70422 4.03224,-2.85456c1.06974,-0.09637 3.39039,0.26021 4.01489,1.34536c0.03659,0.06331 0.04295,0.13967 0.01735,0.20817l-0.40284,1.07938c-0.01083,0.03084 -0.03602,0.05445 -0.06749,0.06328c-0.03147,0.00883 -0.06527,0.00175 -0.09056,-0.01895c-1.15455,-0.91747 -3.01261,-1.35693 -4.28859,-0.45102c-1.37235,0.97722 -1.46679,3.25354 -0.79218,4.57578z" fill="#fefbe0" stroke-width="1"/><path d="M246.82765,139.33145c0.04232,2.42457 -1.88887,4.42438 -4.31343,4.4667l-0.84411,0.01475c-1.16432,0.02032 -2.28903,-0.42271 -3.1267,-1.23164c-0.83767,-0.80893 -1.31968,-1.91749 -1.34001,-3.08181l-0.01762,-1.00983c-0.04232,-2.42457 1.88887,-4.42438 4.31343,-4.4667l0.84411,-0.01475c1.16432,-0.02032 2.28903,0.42271 3.1267,1.23164c0.83767,0.80893 1.31968,1.91749 1.34001,3.08181zM242.28572,142.28232c0.67413,-0.05424 1.29207,-0.4615 1.71787,-1.13218c0.42581,-0.67069 0.6246,-1.54986 0.55265,-2.44411c-0.07195,-0.89426 -0.40875,-1.73034 -0.93631,-2.32432c-0.52756,-0.59398 -1.20266,-0.89721 -1.87679,-0.84297c-0.67413,0.05424 -1.29207,0.4615 -1.71787,1.13218c-0.42581,0.67069 -0.6246,1.54986 -0.55265,2.44411c0.07195,0.89426 0.40875,1.73034 0.93631,2.32432c0.52756,0.59398 1.20266,0.89721 1.87679,0.84297z" fill="#fefbe0" stroke-width="1"/><path d="M261.94047,143.80434l-1.34536,0.12336c-6.86174,-0.03469 -6.27772,-10.89591 0.79989,-9.86472c2.47293,0.36043 3.61012,2.9625 3.40389,5.27545c-0.00642,0.07067 -0.04497,0.10601 -0.11565,0.10601l-5.96355,-0.01349c-0.06488,0.00035 -0.12123,-0.04553 -0.13492,-0.10986l-0.24671,-1.16033c-0.00784,-0.03813 0.00092,-0.07778 0.0241,-0.10905c0.02318,-0.03127 0.05857,-0.05119 0.09733,-0.05478l3.86455,-0.32189c0.04145,-0.0033 0.07968,-0.02361 0.1056,-0.05611c0.02593,-0.0325 0.03724,-0.07429 0.03125,-0.11543c-0.24286,-1.69038 -1.74627,-2.21079 -3.1591,-1.45137c-1.77133,0.94831 -1.62485,3.95321 -0.53198,5.30436c1.22201,1.51113 3.93394,0.87699 5.0827,-0.40091c0.02049,-0.02323 0.04998,-0.03654 0.08095,-0.03654c0.03098,0 0.06046,0.01331 0.08095,0.03654c0.28912,0.32767 0.64763,1.05239 0.31225,1.45137c-0.62964,0.744 -1.42503,1.2098 -2.38619,1.39741z" fill="#fefbe0" stroke-width="1"/><path d="M242.28572,142.28232c-0.67413,0.05424 -1.34924,-0.24898 -1.87679,-0.84297c-0.52756,-0.59398 -0.86436,-1.43007 -0.93631,-2.32432c-0.07195,-0.89425 0.12684,-1.77343 0.55265,-2.44411c0.42581,-0.67069 1.04374,-1.07794 1.71787,-1.13218c0.67413,-0.05424 1.34924,0.24898 1.87679,0.84297c0.52756,0.59398 0.86436,1.43007 0.93631,2.32432c0.07195,0.89425 -0.12684,1.77343 -0.55265,2.44411c-0.42581,0.67069 -1.04374,1.07794 -1.71787,1.13218zM242.4963,136.79226c-0.63799,-0.35658 -1.73664,0.07324 -1.87734,0.89241c-0.15612,0.90976 -0.16769,2.29367 0.49921,3.01647c0.66497,0.7228 1.90625,0.5262 2.16839,-0.48957c0.25828,-1.00035 0.2525,-2.84107 -0.79026,-3.41931z" fill="#8d5e12" stroke-width="1"/><path d="M243.32185,140.24699c-0.26214,1.01577 -1.56028,1.22206 -2.22525,0.49926c-0.6669,-0.7228 -0.67105,-2.18512 -0.51493,-3.09488c0.1407,-0.81917 1.28855,-1.26425 1.92654,-0.90767c1.04276,0.57824 1.07192,2.50294 0.81364,3.50329z" data-paper-data="{&quot;noHover&quot;:false,&quot;origItem&quot;:[&quot;Path&quot;,{&quot;applyMatrix&quot;:true,&quot;segments&quot;:[[[242.49628,138.79225],[1.04276,0.57824],[-0.63799,-0.35658]],[[240.61894,139.68466],[0.1407,-0.81917],[-0.15612,0.90976]],[[241.11815,142.70113],[-0.6669,-0.7228],[0.66497,0.7228]],[[243.28654,142.21156],[-0.26214,1.01577],[0.25828,-1.00035]]],&quot;closed&quot;:true,&quot;fillColor&quot;:[0,0,0,1]}]}" fill="#e3ac6a" stroke-width="0.5"/></g><path d="M262.74228,144.76421l-0.24286,0.239c-0.02678,0.02605 -0.03649,0.06502 -0.02504,0.10059c0.01145,0.03556 0.04206,0.06156 0.07901,0.0671c0.09203,0.01499 0.18379,0.03097 0.27529,0.04795c-0.33777,0.44239 -0.63946,0.9138 -0.90069,1.40984c-0.26755,-0.2418 -0.53924,-0.44962 -0.92621,-0.51335c-0.92518,-0.15227 -1.95637,-0.12143 -2.76975,-0.41633c-0.3765,-0.13492 -0.74014,-0.30004 -1.09094,-0.49536c-0.4279,-0.23644 -0.76649,-0.44396 -1.01577,-0.62257c-0.42019,-0.2994 -0.72151,-0.63221 -0.90398,-0.99842c-0.16833,-0.33538 -0.33538,-0.61036 -0.50114,-0.82495c-0.29169,-0.37907 -0.46259,-0.62771 -0.5127,-0.74593c-0.12464,-0.29169 -0.20752,-0.58595 -0.24864,-0.88277c-0.01284,-0.08991 -0.08844,-0.15758 -0.17921,-0.16043c-0.09078,-0.00285 -0.17047,0.05994 -0.18893,0.14887c-0.16448,0.81981 -0.26278,1.66275 -0.2949,2.52882c-0.01285,0.36108 -0.0893,0.65469 -0.22937,0.88085c-0.38035,0.61293 -0.90141,1.01705 -1.56317,1.21237c-1.52076,0.44717 -4.10355,0.2525 -4.37725,-1.80024c-0.00478,-0.03561 -0.02975,-0.06523 -0.06404,-0.07598c-0.03429,-0.01074 -0.0717,-0.00066 -0.09594,0.02586c-1.3338,1.45137 -3.14753,1.90818 -5.02102,1.95059c-1.54967,0.03469 -2.96507,-0.40862 -4.24618,-1.32994c-0.17733,-0.12721 -0.37136,-0.18632 -0.58209,-0.17733c-0.06553,0.00257 -0.12143,0.02827 -0.16769,0.0771c-1.25863,1.32416 -3.85106,1.67303 -5.5106,1.47836c-0.74014,-0.08738 -1.33637,-0.21652 -1.78868,-0.38742c-0.27948,-0.10601 -0.67654,-0.15805 -0.94831,-0.34309c-0.58595,-0.40091 -1.16611,-0.72087 -1.64797,-1.24899c-0.05366,-0.05832 -0.12968,-0.0909 -0.20864,-0.08942c-0.07896,0.00148 -0.15323,0.03686 -0.20384,0.09713c-1.09094,1.30167 -2.52689,1.93773 -4.30786,1.90818c-0.43946,-0.00771 -0.65533,0.1799 -0.64763,0.56282c0.00134,0.06451 0.03658,0.12325 0.09252,0.1542c0.18118,0.0983 -0.43368,0.14454 -0.91939,-0.27371c-0.23772,-0.20431 -0.48572,-0.36429 -0.744,-0.47994c-0.26727,-0.1195 -0.54033,-0.22551 -0.81917,-0.31803c-0.05268,-0.01799 -0.09316,-0.05011 -0.12143,-0.09637l-0.29876,-0.47801c-0.03084,-0.05011 -0.07581,-0.07517 -0.13492,-0.07517c-0.14263,0.00129 -0.22551,-0.0514 -0.24864,-0.15805c2.86034,0.78062 6.95619,0.35272 8.03556,-2.90082c0.02428,-0.07258 0.09075,-0.12273 0.16721,-0.12614c0.07646,-0.00342 0.14714,0.0406 0.1778,0.11072c0.41826,0.97337 1.01191,1.66918 1.92553,2.25705c2.12406,1.36978 4.34256,1.47386 6.6555,0.31225c0.71123,-0.35658 1.21044,-0.86157 1.59786,-1.52462c0.01297,-0.02168 0.03551,-0.03585 0.06066,-0.03813c0.02515,-0.00229 0.04989,0.00759 0.06655,0.02657c3.20729,3.57158 10.04204,2.72928 10.55282,-2.75048c0.00338,-0.04046 0.03437,-0.07316 0.07458,-0.07871c0.04022,-0.00555 0.0789,0.01754 0.09311,0.05558c0.02313,0.06039 0.03726,0.13043 0.0424,0.21009c0.07196,0.91747 0.13428,1.83558 0.18696,2.75433c0.0424,0.73115 0.07903,1.14298 0.10986,1.2355c0.37007,1.11407 2.40739,0.75749 3.27282,0.53969c0.85001,-0.21395 0.90398,-0.71701 0.9194,-1.49763c0.05011,-2.31038 0.06425,-3.94807 0.0424,-4.91308c-0.01028,-0.4022 0.04112,-0.74464 0.1542,-1.02733c0.02929,-0.07387 0.09981,-0.12316 0.17925,-0.12528l1.84072,-0.06361c0.09252,-0.00257 0.13556,0.0424 0.12914,0.13492c-0.07453,1.01513 -0.10216,1.727 -0.08288,2.13562c0.21588,4.39845 4.09199,6.32398 8.04905,5.37567z" fill="#e3ac6a" stroke="none" stroke-width="1"/></g></g></svg>